<?xml version="1.0" encoding="utf-8"?>
<!-- Generator: Adobe Illustrator 24.2.0, SVG Export Plug-In . SVG Version: 6.00 Build 0)  -->
<svg version="1.1" id="Capa_1" xmlns="http://www.w3.org/2000/svg" xmlns:xlink="http://www.w3.org/1999/xlink" x="0px" y="0px"
	 viewBox="0 0 383.9 383.9" style="enable-background:new 0 0 383.9 383.9;" xml:space="preserve">
<style type="text/css">
	.st0{fill:#FFFFFF;}
</style>
<g>
	<g>
		<path class="st0" d="M344.1,50H320V30.9c0-5.5-4.5-10-10-10s-10,4.5-10,10V50h-98V30.9c0-5.5-4.5-10-10-10s-10,4.5-10,10V50H83
			V30.9c0-5.5-4.5-10-10-10s-10,4.5-10,10V50H39.9C17.9,50,0,68.5,0,90.5V323c0,22.1,17.8,40,39.9,40H344
			c22.1,0,39.9-17.9,39.9-39.9V90.5C384,68.5,366.1,50,344.1,50z M364,323c0,11-8.8,19.9-19.8,20h-0.1H39.9
			c-11,0-19.9-8.9-19.9-19.9V323V90.5C20,79.4,28.9,70,39.9,70H63v14.5c0,5.5,4.5,10,10,10s10-4.5,10-10V70h99v14.5
			c0,5.5,4.5,10,10,10s10-4.5,10-10V70h98v14.5c0,5.5,4.5,10,10,10s10-4.5,10-10V70h24.1c11.1,0,19.9,9.5,19.9,20.5V323z"/>
	</g>
</g>
<g>
	<path class="st0" d="M246.7,124.2v18.6C217.2,182.7,189.7,244,181,294h-23.4c7.8-48.3,38.1-113.9,65.4-150h-87.7v-19.8H246.7z"/>
</g>
</svg>
