<?xml version="1.0" encoding="utf-8"?>
<!-- Generator: Adobe Illustrator 24.2.0, SVG Export Plug-In . SVG Version: 6.00 Build 0)  -->
<svg version="1.1" id="Capa_1" xmlns="http://www.w3.org/2000/svg" xmlns:xlink="http://www.w3.org/1999/xlink" x="0px" y="0px"
	 viewBox="0 0 60 60" style="enable-background:new 0 0 60 60;" xml:space="preserve">
<style type="text/css">
	.st0{fill:#FFFFFF;}
</style>
<g>
	<path class="st0" d="M50.3,11C48.7,10.2,39,4.9,33.6,1.6C32.7,0.6,31.4,0,30,0s-2.7,0.6-3.6,1.6C21,4.9,11.3,10.2,9.8,11H0v49h60
		V11H50.3z M32.2,3C32.2,3,32.2,3,32.2,3c0.3,0.3,0.5,0.7,0.7,1.2c0,0,0,0.1,0,0.1C33,4.6,33,4.8,33,5c0,1.7-1.3,3-3,3s-3-1.3-3-3
		c0-0.2,0-0.4,0.1-0.6c0,0,0-0.1,0-0.1c0.1-0.5,0.4-0.9,0.7-1.2c0,0,0,0,0,0c0.5-0.6,1.3-1,2.2-1S31.7,2.4,32.2,3z M25,4.8
		c0,0.1,0,0.2,0,0.2c0,2.8,2.2,5,5,5s5-2.2,5-5c0-0.1,0-0.2,0-0.2c3.6,2.1,8,4.6,11.1,6.2H13.9C17,9.4,21.4,6.9,25,4.8z M10,13h40h8
		v5H2v-5H10z M2,58V20h56v38H2z"/>
	<circle class="st0" cx="23" cy="28" r="1"/>
	<circle class="st0" cx="30" cy="28" r="1"/>
	<circle class="st0" cx="37" cy="28" r="1"/>
	<circle class="st0" cx="44" cy="28" r="1"/>
	<circle class="st0" cx="51" cy="28" r="1"/>
	<circle class="st0" cx="9" cy="36" r="1"/>
	<circle class="st0" cx="16" cy="36" r="1"/>
	<circle class="st0" cx="23" cy="36" r="1"/>
	<circle class="st0" cx="30" cy="36" r="1"/>
	<circle class="st0" cx="37" cy="36" r="1"/>
	<circle class="st0" cx="44" cy="36" r="1"/>
	<circle class="st0" cx="51" cy="36" r="1"/>
	<circle class="st0" cx="9" cy="43" r="1"/>
	<circle class="st0" cx="16" cy="43" r="1"/>
	<circle class="st0" cx="23" cy="43" r="1"/>
	<circle class="st0" cx="30" cy="43" r="1"/>
	<circle class="st0" cx="37" cy="43" r="1"/>
	<circle class="st0" cx="44" cy="43" r="1"/>
	<circle class="st0" cx="51" cy="43" r="1"/>
	<circle class="st0" cx="9" cy="51" r="1"/>
	<circle class="st0" cx="16" cy="51" r="1"/>
	<circle class="st0" cx="23" cy="51" r="1"/>
	<circle class="st0" cx="30" cy="51" r="1"/>
	<circle class="st0" cx="37" cy="51" r="1"/>
</g>
</svg>
