<?xml version="1.0" encoding="utf-8"?>
<!-- Generator: Adobe Illustrator 24.0.0, SVG Export Plug-In . SVG Version: 6.00 Build 0)  -->
<svg version="1.1" id="Layer_1" xmlns="http://www.w3.org/2000/svg" xmlns:xlink="http://www.w3.org/1999/xlink" x="0px" y="0px"
	 viewBox="0 0 155 209" style="enable-background:new 0 0 155 209;" xml:space="preserve">
<style type="text/css">
	.st0{fill:#B5BD86;}
	.st1{fill:#406325;}
	.st2{fill:#7DAB4E;}
	.st3{fill:#A7BD56;}
	.st4{fill:#DAC89D;}
	.st5{fill:#877C61;}
	.st6{fill:#598D2E;}
	.st7{fill:#BAA97E;}
	.st8{enable-background:new    ;}
	.st9{fill:#FFD025;}
	.st10{fill:#FCCA0D;}
	.st11{fill:#D99A32;}
	.st12{fill:#DEF2EC;}
	.st13{fill:#B3B3B3;}
	.st14{fill:#B7B689;}
	.st15{fill:#D69F76;}
	.st16{fill:#967257;}
</style>
<polygon class="st0" points="79.6,83.3 54.7,100.6 23.8,116.1 72.8,144.7 80.6,145.6 99.5,155.9 107.6,156.1 153.5,129.6 "/>
<g>
	<g>
		<path class="st1" d="M83.9,80.4L61.1,93.6l0,6.5l45.9,26.5l22.9-13.3l0-6.5"/>
		<g>
			
				<ellipse transform="matrix(2.834358e-03 -1 1 2.834358e-03 -5.0585 195.4551)" class="st2" cx="95.5" cy="100.3" rx="5.6" ry="9.7"/>
		</g>
		<g>
			<path class="st3" d="M119.8,103.9c-2.9,1.7-2.9,4.4,0,6.1l-7.6,4.4c-2.9-1.7-7.6-1.7-10.5,0L71.2,96.7c2.9-1.7,2.9-4.4,0-6.1
				l7.6-4.4c2.9,1.7,7.6,1.7,10.5,0L119.8,103.9z M88.7,104.2c3.8,2.2,9.9,2.2,13.7,0c3.8-2.2,3.7-5.7,0-7.9
				c-3.8-2.2-9.9-2.2-13.7,0C84.9,98.5,84.9,102,88.7,104.2"/>
		</g>
		<g>
			<path class="st2" d="M83.9,80.4l45.9,26.5L107,120.2L61.1,93.6L83.9,80.4z M112.2,114.3l7.6-4.4c-2.9-1.7-2.9-4.4,0-6.1
				L89.2,86.2c-2.9,1.7-7.6,1.7-10.5,0l-7.6,4.4c2.9,1.7,2.9,4.4,0,6.1l30.6,17.7C104.6,112.7,109.3,112.7,112.2,114.3"/>
		</g>
		<g>
			<polygon class="st4" points="110,95.4 87.2,108.7 80.2,104.7 103.1,91.4 			"/>
		</g>
		<g>
			<polygon class="st5" points="87.2,108.7 87.1,115.2 80.2,111.2 80.2,104.7 			"/>
		</g>
		<polygon class="st6" points="107,120.2 107,126.6 129.8,113.4 129.8,106.9 		"/>
	</g>
	<g>
		<path class="st1" d="M84.5,73L61.7,86.3l0,6.5l45.9,26.5l22.9-13.3l0-6.5"/>
		<g>
			<ellipse transform="matrix(2.834358e-03 -1 1 2.834358e-03 2.9034 188.6501)" class="st2" cx="96" cy="92.9" rx="5.6" ry="9.7"/>
		</g>
		<g>
			<path class="st3" d="M120.4,96.5c-2.9,1.7-2.9,4.4,0,6.1l-7.6,4.4c-2.9-1.7-7.6-1.7-10.5,0L71.7,89.3c2.9-1.7,2.9-4.4,0-6.1
				l7.6-4.4c2.9,1.7,7.6,1.7,10.5,0L120.4,96.5z M89.2,96.8c3.8,2.2,9.9,2.2,13.7,0c3.8-2.2,3.7-5.7,0-7.9c-3.8-2.2-9.9-2.2-13.7,0
				C85.4,91.1,85.4,94.6,89.2,96.8"/>
		</g>
		<g>
			<path class="st2" d="M84.5,73l45.9,26.5l-22.9,13.3L61.7,86.3L84.5,73z M112.8,106.9l7.6-4.4c-2.9-1.7-2.9-4.4,0-6.1L89.8,78.8
				c-2.9,1.7-7.6,1.7-10.5,0l-7.6,4.4c2.9,1.7,2.9,4.4,0,6.1l30.6,17.7C105.2,105.3,109.9,105.3,112.8,106.9"/>
		</g>
		<g>
			<polygon class="st4" points="110.6,88 87.8,101.3 80.8,97.3 103.6,84 			"/>
		</g>
		<g>
			<polygon class="st5" points="87.7,101.3 87.7,107.8 80.7,103.8 80.8,97.3 			"/>
		</g>
		<polygon class="st6" points="107.6,112.8 107.6,119.2 130.4,106 130.4,99.5 		"/>
	</g>
	<g>
		<path class="st1" d="M83.4,65.9L60.5,79.1l0,6.5l45.9,26.5l22.9-13.3l0-6.5"/>
		<g>
			
				<ellipse transform="matrix(2.834358e-03 -1 1 2.834358e-03 8.8793 180.4223)" class="st2" cx="94.9" cy="85.8" rx="5.6" ry="9.7"/>
		</g>
		<g>
			<path class="st3" d="M119.2,89.3c-2.9,1.7-2.9,4.4,0,6.1l-7.6,4.4c-2.9-1.7-7.6-1.7-10.5,0L70.6,82.2c2.9-1.7,2.9-4.4,0-6.1
				l7.6-4.4c2.9,1.7,7.6,1.7,10.5,0L119.2,89.3z M88.1,89.7c3.8,2.2,9.9,2.2,13.7,0c3.8-2.2,3.7-5.7,0-7.9c-3.8-2.2-9.9-2.2-13.7,0
				C84.3,84,84.3,87.5,88.1,89.7"/>
		</g>
		<g>
			<path class="st2" d="M83.4,65.9l45.9,26.5l-22.9,13.3L60.5,79.1L83.4,65.9z M111.6,99.8l7.6-4.4c-2.9-1.7-2.9-4.4,0-6.1
				L88.6,71.7c-2.9,1.7-7.6,1.7-10.5,0l-7.6,4.4c2.9,1.7,2.9,4.4,0,6.1l30.6,17.7C104.1,98.2,108.7,98.2,111.6,99.8"/>
		</g>
		<g>
			<polygon class="st4" points="109.5,80.9 86.6,94.2 79.6,90.2 102.5,76.9 			"/>
		</g>
		<g>
			<polygon class="st5" points="86.6,94.2 86.6,100.7 79.6,96.6 79.6,90.2 			"/>
		</g>
		<polygon class="st6" points="106.4,105.7 106.4,112.1 129.3,98.8 129.3,92.4 		"/>
	</g>
	<g>
		<path class="st1" d="M83.4,59L60.5,72.3l0,6.5l45.9,26.5L129.3,92l0-6.5"/>
		<g>
			
				<ellipse transform="matrix(2.834358e-03 -1 1 2.834358e-03 15.7051 173.6157)" class="st2" cx="94.9" cy="78.9" rx="5.6" ry="9.7"/>
		</g>
		<g>
			<path class="st3" d="M119.2,82.5c-2.9,1.7-2.9,4.4,0,6.1l-7.6,4.4c-2.9-1.7-7.6-1.7-10.5,0L70.6,75.3c2.9-1.7,2.9-4.4,0-6.1
				l7.6-4.4c2.9,1.7,7.6,1.7,10.5,0L119.2,82.5z M88.1,82.9c3.8,2.2,9.9,2.2,13.7,0c3.8-2.2,3.7-5.7,0-7.9c-3.8-2.2-9.9-2.2-13.7,0
				C84.3,77.2,84.3,80.7,88.1,82.9"/>
		</g>
		<g>
			<path class="st2" d="M83.4,59l45.9,26.5l-22.9,13.3L60.5,72.3L83.4,59z M111.6,93l7.6-4.4c-2.9-1.7-2.9-4.4,0-6.1L88.6,64.9
				c-2.9,1.7-7.6,1.7-10.5,0l-7.6,4.4c2.9,1.7,2.9,4.4,0,6.1L101.2,93C104.1,91.3,108.7,91.3,111.6,93"/>
		</g>
		<g>
			<polygon class="st4" points="109.5,74.1 86.6,87.4 79.6,83.3 102.5,70.1 			"/>
		</g>
		<g>
			<polygon class="st5" points="86.6,87.4 86.6,93.9 79.6,89.8 79.6,83.3 			"/>
		</g>
		<polygon class="st6" points="106.4,98.8 106.4,105.3 129.3,92 129.3,85.5 		"/>
	</g>
	<g>
		<path class="st1" d="M84.5,51.1L61.7,64.4l0,6.5l45.9,26.5l22.9-13.3l0-6.5"/>
		<g>
			<ellipse transform="matrix(2.834358e-03 -1 1 2.834358e-03 24.8031 166.8124)" class="st2" cx="96" cy="71" rx="5.6" ry="9.7"/>
		</g>
		<g>
			<path class="st3" d="M120.4,74.6c-2.9,1.7-2.9,4.4,0,6.1l-7.6,4.4c-2.9-1.7-7.6-1.7-10.5,0L71.7,67.4c2.9-1.7,2.9-4.4,0-6.1
				l7.6-4.4c2.9,1.7,7.6,1.7,10.5,0L120.4,74.6z M89.2,74.9c3.8,2.2,9.9,2.2,13.7,0c3.8-2.2,3.7-5.7,0-7.9c-3.8-2.2-9.9-2.2-13.7,0
				C85.4,69.2,85.4,72.7,89.2,74.9"/>
		</g>
		<g>
			<path class="st2" d="M84.5,51.1l45.9,26.5l-22.9,13.3L61.7,64.4L84.5,51.1z M112.8,85l7.6-4.4c-2.9-1.7-2.9-4.4,0-6.1L89.8,56.9
				c-2.9,1.7-7.6,1.7-10.5,0l-7.6,4.4c2.9,1.7,2.9,4.4,0,6.1L102.3,85C105.2,83.4,109.9,83.4,112.8,85"/>
		</g>
		<g>
			<polygon class="st4" points="110.6,66.1 87.8,79.4 80.8,75.4 103.6,62.1 			"/>
		</g>
		<g>
			<polygon class="st5" points="87.7,79.4 87.7,85.9 80.7,81.9 80.8,75.4 			"/>
		</g>
		<polygon class="st6" points="107.6,90.9 107.6,97.3 130.4,84.1 130.4,77.6 		"/>
	</g>
	<g>
		<path class="st1" d="M85.6,43.9L62.8,57.2l0,6.5l45.9,26.5l22.9-13.3l0-6.5"/>
		<g>
			
				<ellipse transform="matrix(2.834330e-03 -1 1 2.834330e-03 33.1413 160.7667)" class="st2" cx="97.2" cy="63.8" rx="5.6" ry="9.7"/>
		</g>
		<g>
			<path class="st3" d="M121.5,67.4c-2.9,1.7-2.9,4.4,0,6.1l-7.6,4.4c-2.9-1.7-7.6-1.7-10.5,0L72.9,60.2c2.9-1.7,2.9-4.4,0-6.1
				l7.6-4.4c2.9,1.7,7.6,1.7,10.5,0L121.5,67.4z M90.4,67.7c3.8,2.2,9.9,2.2,13.7,0c3.8-2.2,3.7-5.7,0-7.9c-3.8-2.2-9.9-2.2-13.7,0
				C86.6,62,86.6,65.5,90.4,67.7"/>
		</g>
		<g>
			<path class="st2" d="M85.6,43.9l45.9,26.5l-22.9,13.3L62.8,57.2L85.6,43.9z M113.9,77.8l7.6-4.4c-2.9-1.7-2.9-4.4,0-6.1
				L90.9,49.7c-2.9,1.7-7.6,1.7-10.5,0l-7.6,4.4c2.9,1.7,2.9,4.4,0,6.1l30.6,17.7C106.3,76.2,111,76.2,113.9,77.8"/>
		</g>
		<g>
			<polygon class="st4" points="111.8,58.9 88.9,72.2 81.9,68.2 104.8,54.9 			"/>
		</g>
		<g>
			<polygon class="st5" points="88.9,72.2 88.9,78.7 81.9,74.7 81.9,68.2 			"/>
		</g>
		<polygon class="st6" points="108.7,83.7 108.7,90.1 131.5,76.9 131.5,70.4 		"/>
	</g>
	<g>
		<path class="st1" d="M83.4,36.7L60.5,49.9l0,6.5l45.9,26.5l22.9-13.3l0-6.5"/>
		<g>
			
				<ellipse transform="matrix(2.834348e-03 -1 1 2.834348e-03 38.0761 151.3081)" class="st2" cx="94.9" cy="56.6" rx="5.6" ry="9.7"/>
		</g>
		<g>
			<path class="st3" d="M119.2,60.1c-2.9,1.7-2.9,4.4,0,6.1l-7.6,4.4c-2.9-1.7-7.6-1.7-10.5,0L70.6,53c2.9-1.7,2.9-4.4,0-6.1
				l7.6-4.4c2.9,1.7,7.6,1.7,10.5,0L119.2,60.1z M88.1,60.5c3.8,2.2,9.9,2.2,13.7,0c3.8-2.2,3.7-5.7,0-7.9c-3.8-2.2-9.9-2.2-13.7,0
				C84.3,54.8,84.3,58.3,88.1,60.5"/>
		</g>
		<g>
			<path class="st2" d="M83.4,36.7l45.9,26.5l-22.9,13.3L60.5,49.9L83.4,36.7z M111.6,70.6l7.6-4.4c-2.9-1.7-2.9-4.4,0-6.1
				L88.6,42.5c-2.9,1.7-7.6,1.7-10.5,0l-7.6,4.4c2.9,1.7,2.9,4.4,0,6.1l30.6,17.7C104.1,69,108.7,69,111.6,70.6"/>
		</g>
		<g>
			<polygon class="st4" points="109.5,51.7 86.6,65 79.6,61 102.5,47.7 			"/>
		</g>
		<g>
			<polygon class="st5" points="86.6,65 86.6,71.5 79.6,67.4 79.6,61 			"/>
		</g>
		<polygon class="st6" points="106.4,76.5 106.4,82.9 129.3,69.6 129.3,63.2 		"/>
	</g>
</g>
<g>
	<g>
		<path class="st1" d="M57.6,95l-22.9,13.3l0,6.5l45.9,26.5l22.9-13.3l0-6.5"/>
		<g>
			
				<ellipse transform="matrix(2.836179e-03 -1 1 2.836179e-03 -45.9679 183.7242)" class="st2" cx="69.1" cy="114.9" rx="5.6" ry="9.7"/>
		</g>
		<g>
			<path class="st3" d="M93.5,118.5c-2.9,1.7-2.9,4.4,0,6.1l-7.6,4.4c-2.9-1.7-7.6-1.7-10.5,0l-30.6-17.7c2.9-1.7,2.9-4.4,0-6.1
				l7.6-4.4c2.9,1.7,7.6,1.7,10.5,0L93.5,118.5z M62.3,118.9c3.8,2.2,9.9,2.2,13.7,0c3.8-2.2,3.7-5.7,0-7.9c-3.8-2.2-9.9-2.2-13.7,0
				C58.5,113.1,58.5,116.7,62.3,118.9"/>
		</g>
		<g>
			<path class="st2" d="M57.6,95l45.9,26.5l-22.9,13.3l-45.9-26.5L57.6,95z M85.9,129l7.6-4.4c-2.9-1.7-2.9-4.4,0-6.1l-30.6-17.7
				c-2.9,1.7-7.6,1.7-10.5,0l-7.6,4.4c2.9,1.7,2.9,4.4,0,6.1L75.4,129C78.3,127.3,83,127.3,85.9,129"/>
		</g>
		<g>
			<polygon class="st4" points="83.7,110.1 60.9,123.4 53.9,119.3 76.7,106 			"/>
		</g>
		<g>
			<polygon class="st5" points="60.8,123.4 60.8,129.8 53.8,125.8 53.8,119.3 			"/>
		</g>
		<polygon class="st6" points="80.7,134.8 80.7,141.3 103.5,128 103.5,121.5 		"/>
	</g>
	<g>
		<path class="st1" d="M57,87.9l-22.9,13.3l0,6.5l45.9,26.5l22.9-13.3l0-6.5"/>
		<g>
			
				<ellipse transform="matrix(2.836179e-03 -1 1 2.836179e-03 -39.4248 176.0652)" class="st2" cx="68.6" cy="107.8" rx="5.6" ry="9.7"/>
		</g>
		<g>
			<path class="st3" d="M92.9,111.4c-2.9,1.7-2.9,4.4,0,6.1l-7.6,4.4c-2.9-1.7-7.6-1.7-10.5,0l-30.6-17.7c2.9-1.7,2.9-4.4,0-6.1
				l7.6-4.4c2.9,1.7,7.6,1.7,10.5,0L92.9,111.4z M61.8,111.8c3.8,2.2,9.9,2.2,13.7,0c3.8-2.2,3.7-5.7,0-7.9c-3.8-2.2-9.9-2.2-13.7,0
				C57.9,106,58,109.6,61.8,111.8"/>
		</g>
		<g>
			<path class="st2" d="M57,87.9l45.9,26.5l-22.9,13.3l-45.9-26.5L57,87.9z M85.3,121.9l7.6-4.4c-2.9-1.7-2.9-4.4,0-6.1L62.3,93.7
				c-2.9,1.7-7.6,1.7-10.5,0l-7.6,4.4c2.9,1.7,2.9,4.4,0,6.1l30.6,17.7C77.7,120.2,82.4,120.2,85.3,121.9"/>
		</g>
		<g>
			<polygon class="st4" points="83.1,103 60.3,116.2 53.3,112.2 76.1,98.9 			"/>
		</g>
		<g>
			<polygon class="st5" points="60.3,116.3 60.2,122.7 53.2,118.7 53.3,112.2 			"/>
		</g>
		<polygon class="st6" points="80.1,127.7 80.1,134.2 102.9,120.9 102.9,114.4 		"/>
	</g>
	<g>
		<path class="st1" d="M57,80.5L34.2,93.8l0,6.5l45.9,26.5l22.9-13.3l0-6.5"/>
		<g>
			
				<ellipse transform="matrix(2.836179e-03 -1 1 2.836179e-03 -32.03 168.6914)" class="st2" cx="68.6" cy="100.4" rx="5.6" ry="9.7"/>
		</g>
		<g>
			<path class="st3" d="M92.9,104c-2.9,1.7-2.9,4.4,0,6.1l-7.6,4.4c-2.9-1.7-7.6-1.7-10.5,0L44.3,96.8c2.9-1.7,2.9-4.4,0-6.1
				l7.6-4.4c2.9,1.7,7.6,1.7,10.5,0L92.9,104z M61.8,104.4c3.8,2.2,9.9,2.2,13.7,0c3.8-2.2,3.7-5.7,0-7.9c-3.8-2.2-9.9-2.2-13.7,0
				C57.9,98.6,58,102.2,61.8,104.4"/>
		</g>
		<g>
			<path class="st2" d="M57,80.5L103,107l-22.9,13.3L34.2,93.8L57,80.5z M85.3,114.5l7.6-4.4c-2.9-1.7-2.9-4.4,0-6.1L62.3,86.3
				c-2.9,1.7-7.6,1.7-10.5,0l-7.6,4.4c2.9,1.7,2.9,4.4,0,6.1l30.6,17.7C77.7,112.8,82.4,112.8,85.3,114.5"/>
		</g>
		<g>
			<polygon class="st4" points="83.1,95.6 60.3,108.9 53.3,104.8 76.1,91.5 			"/>
		</g>
		<g>
			<polygon class="st5" points="60.3,108.9 60.2,115.3 53.2,111.3 53.3,104.8 			"/>
		</g>
		<polygon class="st6" points="80.1,120.3 80.1,126.8 102.9,113.5 102.9,107 		"/>
	</g>
	<g>
		<path class="st1" d="M59,72.8L36.2,86.1l0,6.5l45.9,26.5l22.9-13.3l0-6.5"/>
		<g>
			
				<ellipse transform="matrix(2.836179e-03 -1 1 2.836179e-03 -22.3657 163.0249)" class="st2" cx="70.6" cy="92.7" rx="5.6" ry="9.7"/>
		</g>
		<g>
			<path class="st3" d="M94.9,96.3c-2.9,1.7-2.9,4.4,0,6.1l-7.6,4.4c-2.9-1.7-7.6-1.7-10.5,0L46.2,89.1c2.9-1.7,2.9-4.4,0-6.1
				l7.6-4.4c2.9,1.7,7.6,1.7,10.5,0L94.9,96.3z M63.7,96.7c3.8,2.2,9.9,2.2,13.7,0c3.8-2.2,3.7-5.7,0-7.9c-3.8-2.2-9.9-2.2-13.7,0
				C59.9,91,60,94.5,63.7,96.7"/>
		</g>
		<g>
			<path class="st2" d="M59,72.8l45.9,26.5l-22.9,13.3L36.2,86.1L59,72.8z M87.3,106.8l7.6-4.4c-2.9-1.7-2.9-4.4,0-6.1L64.3,78.7
				c-2.9,1.7-7.6,1.7-10.5,0l-7.6,4.4c2.9,1.7,2.9,4.4,0,6.1l30.6,17.7C79.7,105.1,84.4,105.1,87.3,106.8"/>
		</g>
		<g>
			<polygon class="st4" points="85.1,87.9 62.3,101.2 55.3,97.1 78.1,83.9 			"/>
		</g>
		<g>
			<polygon class="st5" points="62.3,101.2 62.2,107.7 55.2,103.6 55.3,97.1 			"/>
		</g>
		<polygon class="st6" points="82.1,112.6 82.1,119.1 104.9,105.8 104.9,99.3 		"/>
	</g>
	<g>
		<path class="st1" d="M58.2,65.7L35.3,79l0,6.5L81.2,112l22.9-13.3l0-6.5"/>
		<g>
			
				<ellipse transform="matrix(2.836179e-03 -1 1 2.836179e-03 -16.1062 155.0815)" class="st2" cx="69.7" cy="85.6" rx="5.6" ry="9.7"/>
		</g>
		<g>
			<path class="st3" d="M94,89.2c-2.9,1.7-2.9,4.4,0,6.1l-7.6,4.4c-2.9-1.7-7.6-1.7-10.5,0L45.4,82c2.9-1.7,2.9-4.4,0-6.1l7.6-4.4
				c2.9,1.7,7.6,1.7,10.5,0L94,89.2z M62.9,89.6c3.8,2.2,9.9,2.2,13.7,0c3.8-2.2,3.7-5.7,0-7.9c-3.8-2.2-9.9-2.2-13.7,0
				C59.1,83.8,59.1,87.4,62.9,89.6"/>
		</g>
		<g>
			<path class="st2" d="M58.2,65.7l45.9,26.5l-22.9,13.3L35.3,79L58.2,65.7z M86.4,99.7l7.6-4.4c-2.9-1.7-2.9-4.4,0-6.1L63.4,71.5
				c-2.9,1.7-7.6,1.7-10.5,0L45.4,76c2.9,1.7,2.9,4.4,0,6.1L76,99.7C78.9,98,83.5,98,86.4,99.7"/>
		</g>
		<g>
			<polygon class="st4" points="84.3,80.8 61.4,94.1 54.4,90 77.3,76.7 			"/>
		</g>
		<g>
			<polygon class="st5" points="61.4,94.1 61.4,100.5 54.4,96.5 54.4,90 			"/>
		</g>
		<polygon class="st6" points="81.2,105.5 81.2,112 104.1,98.7 104.1,92.2 		"/>
	</g>
</g>
<g>
	<g>
		<path class="st6" d="M84.7,136.4l0,6.5l22.9,13.3l45.9-26.5l0-6.5l-22.9-13.3"/>
		<g>
			
				<ellipse transform="matrix(1 -2.836179e-03 2.836179e-03 1 -0.3675 0.3383)" class="st2" cx="119.1" cy="129.7" rx="9.7" ry="5.6"/>
		</g>
		<g>
			<path class="st3" d="M125.4,115.7c2.9,1.7,7.6,1.7,10.5,0l7.6,4.4c-2.9,1.7-2.9,4.4,0,6.1l-30.6,17.7c-2.9-1.7-7.6-1.7-10.5,0
				l-7.6-4.4c2.9-1.7,2.9-4.4,0-6.1L125.4,115.7z M125.9,133.7c3.8-2.2,3.8-5.7,0-7.9c-3.8-2.2-9.9-2.2-13.7,0
				c-3.8,2.2-3.8,5.7,0,7.9C116,135.9,122.1,135.9,125.9,133.7"/>
		</g>
		<g>
			<path class="st2" d="M153.5,123.1l-45.9,26.5l-22.9-13.3l45.9-26.5L153.5,123.1z M102.4,143.8c2.9-1.7,7.6-1.7,10.5,0l30.6-17.7
				c-2.9-1.7-2.9-4.4,0-6.1l-7.6-4.4c-2.9,1.7-7.6,1.7-10.5,0l-30.6,17.7c2.9,1.7,2.9,4.4,0,6.1L102.4,143.8"/>
		</g>
		<g>
			<polygon class="st4" points="104.5,124.9 127.4,138.2 134.4,134.1 111.5,120.9 			"/>
		</g>
		<g>
			<polygon class="st7" points="127.4,138.2 127.4,144.7 134.4,140.6 134.4,134.2 			"/>
		</g>
		<polygon class="st1" points="107.6,149.6 107.6,156.1 84.7,142.8 84.7,136.4 		"/>
	</g>
	<g>
		<path class="st6" d="M85.7,128.8l0,6.5l22.9,13.3l45.9-26.5l0-6.5l-22.9-13.3"/>
		<g>
			
				<ellipse transform="matrix(1 -2.834363e-03 2.834363e-03 1 -0.3457 0.3409)" class="st2" cx="120.1" cy="122.1" rx="9.7" ry="5.6"/>
		</g>
		<g>
			<path class="st3" d="M126.4,108.1c2.9,1.7,7.6,1.7,10.5,0l7.6,4.4c-2.9,1.7-2.9,4.4,0,6.1l-30.6,17.7c-2.9-1.7-7.6-1.7-10.5,0
				l-7.6-4.4c2.9-1.7,2.9-4.4,0-6.1L126.4,108.1z M126.9,126.1c3.8-2.2,3.8-5.7,0-7.9c-3.8-2.2-9.9-2.2-13.7,0
				c-3.8,2.2-3.8,5.7,0,7.9C117,128.3,123.1,128.3,126.9,126.1"/>
		</g>
		<g>
			<path class="st2" d="M154.5,115.5L108.6,142l-22.9-13.3l45.9-26.5L154.5,115.5z M103.4,136.2c2.9-1.7,7.6-1.7,10.5,0l30.6-17.7
				c-2.9-1.7-2.9-4.4,0-6.1l-7.6-4.4c-2.9,1.7-7.6,1.7-10.5,0l-30.6,17.7c2.9,1.7,2.9,4.4,0,6.1L103.4,136.2"/>
		</g>
		<g>
			<polygon class="st4" points="105.5,117.3 128.4,130.6 135.4,126.5 112.5,113.3 			"/>
		</g>
		<g>
			<polygon class="st7" points="128.4,130.6 128.4,137.1 135.4,133 135.4,126.6 			"/>
		</g>
		<polygon class="st1" points="108.6,142 108.6,148.5 85.7,135.2 85.7,128.8 		"/>
	</g>
	<g>
		<path class="st6" d="M84.7,121.3l0,6.5l22.9,13.3l45.9-26.5l0-6.5l-22.9-13.3"/>
		<g>
			
				<ellipse transform="matrix(1 -2.836179e-03 2.836179e-03 1 -0.3247 0.3382)" class="st2" cx="119.1" cy="114.7" rx="9.7" ry="5.6"/>
		</g>
		<g>
			<path class="st3" d="M125.4,100.6c2.9,1.7,7.6,1.7,10.5,0l7.6,4.4c-2.9,1.7-2.9,4.4,0,6.1l-30.6,17.7c-2.9-1.7-7.6-1.7-10.5,0
				l-7.6-4.4c2.9-1.7,2.9-4.4,0-6.1L125.4,100.6z M125.9,118.6c3.8-2.2,3.8-5.7,0-7.9c-3.8-2.2-9.9-2.2-13.7,0
				c-3.8,2.2-3.8,5.7,0,7.9C116,120.8,122.1,120.8,125.9,118.6"/>
		</g>
		<g>
			<path class="st2" d="M153.5,108l-45.9,26.5l-22.9-13.3l45.9-26.5L153.5,108z M102.4,128.7c2.9-1.7,7.6-1.7,10.5,0l30.6-17.7
				c-2.9-1.7-2.9-4.4,0-6.1l-7.6-4.4c-2.9,1.7-7.6,1.7-10.5,0l-30.6,17.7c2.9,1.7,2.9,4.4,0,6.1L102.4,128.7"/>
		</g>
		<g>
			<polygon class="st4" points="104.5,109.8 127.4,123.1 134.4,119.1 111.5,105.8 			"/>
		</g>
		<g>
			<polygon class="st7" points="127.4,123.1 127.4,129.6 134.4,125.5 134.4,119.1 			"/>
		</g>
		<polygon class="st1" points="107.6,134.6 107.6,141 84.7,127.7 84.7,121.3 		"/>
	</g>
</g>
<path class="st0" d="M41.9,133c-5.8-2.9-15.1-2.9-20.8,0c-5.7,2.9-5.7,7.5,0.1,10.4c5.8,2.9,15.1,2.9,20.8,0
	C47.7,140.5,47.6,135.8,41.9,133z"/>
<path class="st0" d="M25.3,124.8c-5.5-2.9-14.4-2.9-19.9,0c-5.5,2.9-5.4,7.5,0.1,10.4c5.5,2.9,14.4,2.9,19.9,0
	C30.9,132.3,30.9,127.7,25.3,124.8z M4.5,129.1L4.5,129.1c0-0.1,0-0.1,0.1-0.2C4.6,129,4.6,129,4.5,129.1z"/>
<g>
	<g>
		<g class="st8">
			<g>
				<path class="st9" d="M9.8,125.5c-1.5,0.8-2.4,1.9-2.7,3c0-0.9,0-1.7,0-2.6c0.4-1.1,1.3-2.1,2.7-3c3.9-2.3,10.2-2.3,14.1,0
					c1.9,1.1,2.9,2.6,2.9,4.1c0,0.9,0,1.7,0,2.6c0-1.5-1-3-2.9-4.1C19.9,123.2,13.6,123.2,9.8,125.5z"/>
			</g>
			<g>
				<path class="st9" d="M7,128.4c-0.1,0.4-0.2,0.7-0.2,1.1l0-2.6c0-0.4,0.1-0.7,0.2-1.1c0,0.4,0,0.9,0,1.3c0,0.1,0,0.2,0,0.3
					c0,0.2,0,0.3,0,0.5c0,0.1,0,0.2,0,0.3C7,128.3,7.1,128.4,7,128.4z"/>
			</g>
			<g>
				<path class="st10" d="M26.8,127l0,2.6c0,1.5-1,2.9-2.9,4c-3.9,2.3-10.2,2.3-14.1,0c-2-1.1-2.9-2.6-2.9-4.1l0-2.6
					c0,1.5,1,3,2.9,4.1c3.9,2.3,10.2,2.3,14.1,0C25.8,129.9,26.8,128.5,26.8,127z"/>
			</g>
			<g>
				<path class="st9" d="M26.8,129.6C26.8,129.5,26.8,129.5,26.8,129.6c0-0.9,0-1.7,0-2.6c0,0,0,0,0,0
					C26.8,127.8,26.8,128.8,26.8,129.6z"/>
			</g>
			<g>
				<path class="st10" d="M23.8,122.9c3.9,2.3,3.9,5.9,0,8.2c-3.9,2.3-10.2,2.3-14.1,0c-3.9-2.3-3.9-5.9,0-8.2
					C13.6,120.7,19.9,120.7,23.8,122.9z"/>
			</g>
			<path class="st11" d="M9.8,124.3c3.9-2.3,10.2-2.3,14.1,0c1.6,0.9,2.6,2.1,2.9,3.4c0.4-1.7-0.6-3.5-2.9-4.8
				c-3.9-2.3-10.2-2.3-14.1,0c-2.2,1.3-3.2,3.1-2.8,4.8C7.2,126.4,8.2,125.3,9.8,124.3z"/>
			<g>
				<path class="st11" d="M29.5,127l0,2.6c0,1.9-1.2,3.7-3.7,5.2c-4.9,2.9-13,2.9-17.9,0c-2.5-1.4-3.7-3.3-3.7-5.2l0-2.6
					c0,1.9,1.2,3.8,3.7,5.2c5,2.9,13,2.9,17.9,0C28.3,130.7,29.5,128.9,29.5,127z"/>
			</g>
			<g>
				<path class="st9" d="M25.8,121.8c5,2.9,5,7.5,0.1,10.4c-4.9,2.9-13,2.9-17.9,0c-5-2.9-5-7.5-0.1-10.4
					C12.8,118.9,20.8,118.9,25.8,121.8z M9.8,131.1c3.9,2.3,10.2,2.3,14.1,0c3.9-2.3,3.9-5.9,0-8.2c-3.9-2.3-10.2-2.3-14.1,0
					C5.9,125.2,5.9,128.8,9.8,131.1"/>
			</g>
		</g>
	</g>
	<g>
		<g class="st8">
			<g>
				<path class="st9" d="M9.8,122.6c-1.5,0.8-2.4,1.9-2.7,3c0-0.9,0-1.7,0-2.6c0.4-1.1,1.3-2.1,2.7-3c3.9-2.3,10.2-2.3,14.1,0
					c1.9,1.1,2.9,2.6,2.9,4.1c0,0.9,0,1.7,0,2.6c0-1.5-1-3-2.9-4.1C19.9,120.3,13.6,120.3,9.8,122.6z"/>
			</g>
			<g>
				<path class="st9" d="M7,125.5c-0.1,0.4-0.2,0.7-0.2,1.1l0-2.6c0-0.4,0.1-0.7,0.2-1.1c0,0.4,0,0.9,0,1.3c0,0.1,0,0.2,0,0.3
					c0,0.2,0,0.3,0,0.5c0,0.1,0,0.2,0,0.3C7,125.4,7.1,125.5,7,125.5z"/>
			</g>
			<g>
				<path class="st10" d="M26.8,124.1l0,2.6c0,1.5-1,2.9-2.9,4c-3.9,2.3-10.2,2.3-14.1,0c-2-1.1-2.9-2.6-2.9-4.1l0-2.6
					c0,1.5,1,3,2.9,4.1c3.9,2.3,10.2,2.3,14.1,0C25.8,127.1,26.8,125.6,26.8,124.1z"/>
			</g>
			<g>
				<path class="st9" d="M26.8,126.7C26.8,126.7,26.8,126.7,26.8,126.7c0-0.9,0-1.7,0-2.6c0,0,0,0,0,0
					C26.8,124.9,26.8,125.9,26.8,126.7z"/>
			</g>
			<g>
				<path class="st10" d="M23.8,120c3.9,2.3,3.9,5.9,0,8.2c-3.9,2.3-10.2,2.3-14.1,0c-3.9-2.3-3.9-5.9,0-8.2
					C13.6,117.8,19.9,117.8,23.8,120z"/>
			</g>
			<path class="st11" d="M9.8,121.4c3.9-2.3,10.2-2.3,14.1,0c1.6,0.9,2.6,2.1,2.9,3.4c0.4-1.7-0.6-3.5-2.9-4.8
				c-3.9-2.3-10.2-2.3-14.1,0c-2.2,1.3-3.2,3.1-2.8,4.8C7.2,123.6,8.2,122.4,9.8,121.4z"/>
			<g>
				<path class="st11" d="M29.5,124.1l0,2.6c0,1.9-1.2,3.7-3.7,5.2c-4.9,2.9-13,2.9-17.9,0c-2.5-1.4-3.7-3.3-3.7-5.2l0-2.6
					c0,1.9,1.2,3.8,3.7,5.2c5,2.9,13,2.9,17.9,0C28.3,127.9,29.5,126,29.5,124.1z"/>
			</g>
			<g>
				<path class="st9" d="M25.8,118.9c5,2.9,5,7.5,0.1,10.4c-4.9,2.9-13,2.9-17.9,0c-5-2.9-5-7.5-0.1-10.4
					C12.8,116,20.8,116,25.8,118.9z M9.8,128.2c3.9,2.3,10.2,2.3,14.1,0c3.9-2.3,3.9-5.9,0-8.2c-3.9-2.3-10.2-2.3-14.1,0
					C5.9,122.3,5.9,125.9,9.8,128.2"/>
			</g>
		</g>
	</g>
	<g>
		<g class="st8">
			<g>
				<path class="st9" d="M9.2,119.7c-1.5,0.8-2.4,1.9-2.7,3c0-0.9,0-1.7,0-2.6c0.4-1.1,1.3-2.1,2.7-3c3.9-2.3,10.2-2.3,14.1,0
					c1.9,1.1,2.9,2.6,2.9,4.1c0,0.9,0,1.7,0,2.6c0-1.5-1-3-2.9-4.1C19.4,117.4,13.1,117.4,9.2,119.7z"/>
			</g>
			<g>
				<path class="st9" d="M6.5,122.7c-0.1,0.4-0.2,0.7-0.2,1.1l0-2.6c0-0.4,0.1-0.7,0.2-1.1c0,0.4,0,0.9,0,1.3c0,0.1,0,0.2,0,0.3
					c0,0.2,0,0.3,0,0.5c0,0.1,0,0.2,0,0.3C6.5,122.6,6.5,122.6,6.5,122.7z"/>
			</g>
			<g>
				<path class="st10" d="M26.2,121.2l0,2.6c0,1.5-1,2.9-2.9,4c-3.9,2.3-10.2,2.3-14.1,0c-2-1.1-2.9-2.6-2.9-4.1l0-2.6
					c0,1.5,1,3,2.9,4.1c3.9,2.3,10.2,2.3,14.1,0C25.2,124.2,26.2,122.7,26.2,121.2z"/>
			</g>
			<g>
				<path class="st9" d="M26.2,123.8C26.2,123.8,26.2,123.8,26.2,123.8c0-0.9,0-1.7,0-2.6c0,0,0,0,0,0C26.2,122,26.2,123,26.2,123.8
					z"/>
			</g>
			<g>
				<path class="st10" d="M23.3,117.1c3.9,2.3,3.9,5.9,0,8.2c-3.9,2.3-10.2,2.3-14.1,0c-3.9-2.3-3.9-5.9,0-8.2
					C13.1,114.9,19.4,114.9,23.3,117.1z"/>
			</g>
			<path class="st11" d="M9.2,118.6c3.9-2.3,10.2-2.3,14.1,0c1.6,0.9,2.6,2.1,2.9,3.4c0.4-1.7-0.6-3.5-2.9-4.8
				c-3.9-2.3-10.2-2.3-14.1,0c-2.2,1.3-3.2,3.1-2.8,4.8C6.6,120.7,7.6,119.5,9.2,118.6z"/>
			<g>
				<path class="st11" d="M28.9,121.2l0,2.6c0,1.9-1.2,3.7-3.7,5.2c-4.9,2.9-13,2.9-17.9,0c-2.5-1.4-3.7-3.3-3.7-5.2l0-2.6
					c0,1.9,1.2,3.8,3.7,5.2c5,2.9,13,2.9,17.9,0C27.7,125,28.9,123.1,28.9,121.2z"/>
			</g>
			<g>
				<path class="st9" d="M25.2,116c5,2.9,5,7.5,0.1,10.4c-4.9,2.9-13,2.9-17.9,0c-5-2.9-5-7.5-0.1-10.4
					C12.2,113.2,20.2,113.2,25.2,116z M9.2,125.3c3.9,2.3,10.2,2.3,14.1,0c3.9-2.3,3.9-5.9,0-8.2c-3.9-2.3-10.2-2.3-14.1,0
					C5.3,119.4,5.3,123,9.2,125.3"/>
			</g>
		</g>
	</g>
</g>
<g>
	<g>
		<g class="st8">
			<g>
				<path class="st9" d="M27.5,133.8c-1.5,0.8-2.4,1.9-2.7,3c0-0.9,0-1.7,0-2.6c0.4-1.1,1.3-2.1,2.7-3c3.9-2.3,10.2-2.3,14.1,0
					c1.9,1.1,2.9,2.6,2.9,4.1c0,0.9,0,1.7,0,2.6c0-1.5-1-3-2.9-4.1C37.7,131.6,31.4,131.6,27.5,133.8z"/>
			</g>
			<g>
				<path class="st9" d="M24.8,136.8c-0.1,0.4-0.2,0.7-0.2,1.1l0-2.6c0-0.4,0.1-0.7,0.2-1.1c0,0.4,0,0.9,0,1.3c0,0.1,0,0.2,0,0.3
					c0,0.2,0,0.3,0,0.5c0,0.1,0,0.2,0,0.3C24.8,136.7,24.8,136.7,24.8,136.8z"/>
			</g>
			<g>
				<path class="st10" d="M44.6,135.4l0,2.6c0,1.5-1,2.9-2.9,4c-3.9,2.3-10.2,2.3-14.1,0c-2-1.1-2.9-2.6-2.9-4.1l0-2.6
					c0,1.5,1,3,2.9,4.1c3.9,2.3,10.2,2.3,14.1,0C43.6,138.3,44.6,136.8,44.6,135.4z"/>
			</g>
			<g>
				<path class="st9" d="M44.5,137.9C44.5,137.9,44.5,137.9,44.5,137.9c0-0.9,0-1.7,0-2.6c0,0,0,0,0,0
					C44.6,136.1,44.6,137.1,44.5,137.9z"/>
			</g>
			<g>
				<path class="st10" d="M41.6,131.3c3.9,2.3,3.9,5.9,0,8.2c-3.9,2.3-10.2,2.3-14.1,0c-3.9-2.3-3.9-5.9,0-8.2
					C31.4,129,37.7,129,41.6,131.3z"/>
			</g>
			<path class="st11" d="M27.5,132.7c3.9-2.3,10.2-2.3,14.1,0c1.6,0.9,2.6,2.1,2.9,3.4c0.4-1.7-0.6-3.5-2.9-4.8
				c-3.9-2.3-10.2-2.3-14.1,0c-2.2,1.3-3.2,3.1-2.8,4.8C25,134.8,25.9,133.6,27.5,132.7z"/>
			<g>
				<path class="st11" d="M47.3,135.4l0,2.6c0,1.9-1.2,3.7-3.7,5.2c-4.9,2.9-13,2.9-17.9,0c-2.5-1.4-3.7-3.3-3.7-5.2l0-2.6
					c0,1.9,1.2,3.8,3.7,5.2c5,2.9,13,2.9,17.9,0C46,139.1,47.3,137.2,47.3,135.4z"/>
			</g>
			<g>
				<path class="st9" d="M43.5,130.1c5,2.9,5,7.5,0.1,10.4c-4.9,2.9-13,2.9-17.9,0c-5-2.9-5-7.5-0.1-10.4
					C30.5,127.3,38.6,127.3,43.5,130.1z M27.6,139.4c3.9,2.3,10.2,2.3,14.1,0c3.9-2.3,3.9-5.9,0-8.2c-3.9-2.3-10.2-2.3-14.1,0
					C23.7,133.5,23.7,137.2,27.6,139.4"/>
			</g>
		</g>
	</g>
	<g>
		<g class="st8">
			<g>
				<path class="st9" d="M27.5,130.9c-1.5,0.8-2.4,1.9-2.7,3c0-0.9,0-1.7,0-2.6c0.4-1.1,1.3-2.1,2.7-3c3.9-2.3,10.2-2.3,14.1,0
					c1.9,1.1,2.9,2.6,2.9,4.1c0,0.9,0,1.7,0,2.6c0-1.5-1-3-2.9-4.1C37.7,128.7,31.4,128.7,27.5,130.9z"/>
			</g>
			<g>
				<path class="st9" d="M24.8,133.9c-0.1,0.4-0.2,0.7-0.2,1.1l0-2.6c0-0.4,0.1-0.7,0.2-1.1c0,0.4,0,0.9,0,1.3c0,0.1,0,0.2,0,0.3
					c0,0.2,0,0.3,0,0.5c0,0.1,0,0.2,0,0.3C24.8,133.8,24.8,133.9,24.8,133.9z"/>
			</g>
			<g>
				<path class="st10" d="M44.6,132.5l0,2.6c0,1.5-1,2.9-2.9,4c-3.9,2.3-10.2,2.3-14.1,0c-2-1.1-2.9-2.6-2.9-4.1l0-2.6
					c0,1.5,1,3,2.9,4.1c3.9,2.3,10.2,2.3,14.1,0C43.6,135.4,44.6,133.9,44.6,132.5z"/>
			</g>
			<g>
				<path class="st9" d="M44.5,135C44.5,135,44.5,135,44.5,135c0-0.9,0-1.7,0-2.6c0,0,0,0,0,0C44.6,133.2,44.6,134.3,44.5,135z"/>
			</g>
			<g>
				<path class="st10" d="M41.6,128.4c3.9,2.3,3.9,5.9,0,8.2c-3.9,2.3-10.2,2.3-14.1,0c-3.9-2.3-3.9-5.9,0-8.2
					C31.4,126.1,37.7,126.1,41.6,128.4z"/>
			</g>
			<path class="st11" d="M27.5,129.8c3.9-2.3,10.2-2.3,14.1,0c1.6,0.9,2.6,2.1,2.9,3.4c0.4-1.7-0.6-3.5-2.9-4.8
				c-3.9-2.3-10.2-2.3-14.1,0c-2.2,1.3-3.2,3.1-2.8,4.8C25,131.9,25.9,130.7,27.5,129.8z"/>
			<g>
				<path class="st11" d="M47.3,132.5l0,2.6c0,1.9-1.2,3.7-3.7,5.2c-4.9,2.9-13,2.9-17.9,0c-2.5-1.4-3.7-3.3-3.7-5.2l0-2.6
					c0,1.9,1.2,3.8,3.7,5.2c5,2.9,13,2.9,17.9,0C46,136.2,47.3,134.3,47.3,132.5z"/>
			</g>
			<g>
				<path class="st9" d="M43.5,127.3c5,2.9,5,7.5,0.1,10.4c-4.9,2.9-13,2.9-17.9,0c-5-2.9-5-7.5-0.1-10.4
					C30.5,124.4,38.6,124.4,43.5,127.3z M27.6,136.5c3.9,2.3,10.2,2.3,14.1,0c3.9-2.3,3.9-5.9,0-8.2c-3.9-2.3-10.2-2.3-14.1,0
					C23.7,130.6,23.7,134.3,27.6,136.5"/>
			</g>
		</g>
	</g>
	<g>
		<g class="st8">
			<g>
				<path class="st9" d="M27,128c-1.5,0.8-2.4,1.9-2.7,3c0-0.9,0-1.7,0-2.6c0.4-1.1,1.3-2.1,2.7-3c3.9-2.3,10.2-2.3,14.1,0
					c1.9,1.1,2.9,2.6,2.9,4.1c0,0.9,0,1.7,0,2.6c0-1.5-1-3-2.9-4.1C37.1,125.8,30.8,125.8,27,128z"/>
			</g>
			<g>
				<path class="st9" d="M24.2,131c-0.1,0.4-0.2,0.7-0.2,1.1l0-2.6c0-0.4,0.1-0.7,0.2-1.1c0,0.4,0,0.9,0,1.3c0,0.1,0,0.2,0,0.3
					c0,0.2,0,0.3,0,0.5c0,0.1,0,0.2,0,0.3C24.2,130.9,24.3,131,24.2,131z"/>
			</g>
			<g>
				<path class="st10" d="M44,129.6l0,2.6c0,1.5-1,2.9-2.9,4c-3.9,2.3-10.2,2.3-14.1,0c-2-1.1-2.9-2.6-2.9-4.1l0-2.6
					c0,1.5,1,3,2.9,4.1c3.9,2.3,10.2,2.3,14.1,0C43,132.5,44,131.1,44,129.6z"/>
			</g>
			<g>
				<path class="st9" d="M44,132.1C44,132.1,44,132.1,44,132.1c0-0.9,0-1.7,0-2.6c0,0,0,0,0,0C44,130.4,44,131.4,44,132.1z"/>
			</g>
			<g>
				<path class="st10" d="M41.1,125.5c3.9,2.3,3.9,5.9,0,8.2c-3.9,2.3-10.2,2.3-14.1,0c-3.9-2.3-3.9-5.9,0-8.2
					C30.8,123.2,37.1,123.2,41.1,125.5z"/>
			</g>
			<path class="st11" d="M27,126.9c3.9-2.3,10.2-2.3,14.1,0c1.6,0.9,2.6,2.1,2.9,3.4c0.4-1.7-0.6-3.5-2.9-4.8
				c-3.9-2.3-10.2-2.3-14.1,0c-2.2,1.3-3.2,3.1-2.8,4.8C24.4,129,25.4,127.8,27,126.9z"/>
			<g>
				<path class="st11" d="M46.7,129.6l0,2.6c0,1.9-1.2,3.7-3.7,5.2c-4.9,2.9-13,2.9-17.9,0c-2.5-1.4-3.7-3.3-3.7-5.2l0-2.6
					c0,1.9,1.2,3.8,3.7,5.2c5,2.9,13,2.9,17.9,0C45.5,133.3,46.7,131.5,46.7,129.6z"/>
			</g>
			<g>
				<path class="st9" d="M43,124.4c5,2.9,5,7.5,0.1,10.4c-4.9,2.9-13,2.9-17.9,0c-5-2.9-5-7.5-0.1-10.4C30,121.5,38,121.5,43,124.4z
					 M27,133.6c3.9,2.3,10.2,2.3,14.1,0c3.9-2.3,3.9-5.9,0-8.2c-3.9-2.3-10.2-2.3-14.1,0C23.1,127.7,23.1,131.4,27,133.6"/>
			</g>
		</g>
	</g>
	<g>
		<g class="st8">
			<g>
				<path class="st9" d="M28.1,125.2c-1.5,0.8-2.4,1.9-2.7,3c0-0.9,0-1.7,0-2.6c0.4-1.1,1.3-2.1,2.7-3c3.9-2.3,10.2-2.3,14.1,0
					c1.9,1.1,2.9,2.6,2.9,4.1c0,0.9,0,1.7,0,2.6c0-1.5-1-3-2.9-4.1C38.3,122.9,32,122.9,28.1,125.2z"/>
			</g>
			<g>
				<path class="st9" d="M25.4,128.1c-0.1,0.4-0.2,0.7-0.2,1.1l0-2.6c0-0.4,0.1-0.7,0.2-1.1c0,0.4,0,0.9,0,1.3c0,0.1,0,0.2,0,0.3
					c0,0.2,0,0.3,0,0.5c0,0.1,0,0.2,0,0.3C25.4,128,25.4,128.1,25.4,128.1z"/>
			</g>
			<g>
				<path class="st10" d="M45.1,126.7l0,2.6c0,1.5-1,2.9-2.9,4c-3.9,2.3-10.2,2.3-14.1,0c-2-1.1-2.9-2.6-2.9-4.1l0-2.6
					c0,1.5,1,3,2.9,4.1c3.9,2.3,10.2,2.3,14.1,0C44.2,129.6,45.1,128.2,45.1,126.7z"/>
			</g>
			<g>
				<path class="st9" d="M45.1,129.3C45.1,129.2,45.1,129.2,45.1,129.3c0-0.9,0-1.7,0-2.6c0,0,0,0,0,0
					C45.1,127.5,45.1,128.5,45.1,129.3z"/>
			</g>
			<g>
				<path class="st10" d="M42.2,122.6c3.9,2.3,3.9,5.9,0,8.2c-3.9,2.3-10.2,2.3-14.1,0c-3.9-2.3-3.9-5.9,0-8.2
					C32,120.4,38.3,120.4,42.2,122.6z"/>
			</g>
			<path class="st11" d="M28.1,124c3.9-2.3,10.2-2.3,14.1,0c1.6,0.9,2.6,2.1,2.9,3.4c0.4-1.7-0.6-3.5-2.9-4.8
				c-3.9-2.3-10.2-2.3-14.1,0c-2.2,1.3-3.2,3.1-2.8,4.8C25.6,126.1,26.5,125,28.1,124z"/>
			<g>
				<path class="st11" d="M47.8,126.7l0,2.6c0,1.9-1.2,3.7-3.7,5.2c-4.9,2.9-13,2.9-17.9,0c-2.5-1.4-3.7-3.3-3.7-5.2l0-2.6
					c0,1.9,1.2,3.8,3.7,5.2c5,2.9,13,2.9,17.9,0C46.6,130.4,47.8,128.6,47.8,126.7z"/>
			</g>
			<g>
				<path class="st9" d="M44.1,121.5c5,2.9,5,7.5,0.1,10.4c-4.9,2.9-13,2.9-17.9,0c-5-2.9-5-7.5-0.1-10.4
					C31.1,118.6,39.1,118.6,44.1,121.5z M28.2,130.8c3.9,2.3,10.2,2.3,14.1,0c3.9-2.3,3.9-5.9,0-8.2c-3.9-2.3-10.2-2.3-14.1,0
					C24.2,124.9,24.3,128.5,28.2,130.8"/>
			</g>
		</g>
	</g>
	<g>
		<g class="st8">
			<g>
				<path class="st9" d="M27,122.3c-1.5,0.8-2.4,1.9-2.7,3c0-0.9,0-1.7,0-2.6c0.4-1.1,1.3-2.1,2.7-3c3.9-2.3,10.2-2.3,14.1,0
					c1.9,1.1,2.9,2.6,2.9,4.1c0,0.9,0,1.7,0,2.6c0-1.5-1-3-2.9-4.1C37.1,120,30.8,120,27,122.3z"/>
			</g>
			<g>
				<path class="st9" d="M24.2,125.2c-0.1,0.4-0.2,0.7-0.2,1.1l0-2.6c0-0.4,0.1-0.7,0.2-1.1c0,0.4,0,0.9,0,1.3c0,0.1,0,0.2,0,0.3
					c0,0.2,0,0.3,0,0.5c0,0.1,0,0.2,0,0.3C24.2,125.1,24.3,125.2,24.2,125.2z"/>
			</g>
			<g>
				<path class="st10" d="M44,123.8l0,2.6c0,1.5-1,2.9-2.9,4c-3.9,2.3-10.2,2.3-14.1,0c-2-1.1-2.9-2.6-2.9-4.1l0-2.6
					c0,1.5,1,3,2.9,4.1c3.9,2.3,10.2,2.3,14.1,0C43,126.8,44,125.3,44,123.8z"/>
			</g>
			<g>
				<path class="st9" d="M44,126.4C44,126.4,44,126.4,44,126.4c0-0.9,0-1.7,0-2.6c0,0,0,0,0,0C44,124.6,44,125.6,44,126.4z"/>
			</g>
			<g>
				<path class="st10" d="M41.1,119.7c3.9,2.3,3.9,5.9,0,8.2c-3.9,2.3-10.2,2.3-14.1,0c-3.9-2.3-3.9-5.9,0-8.2
					C30.8,117.5,37.1,117.5,41.1,119.7z"/>
			</g>
			<path class="st11" d="M27,121.1c3.9-2.3,10.2-2.3,14.1,0c1.6,0.9,2.6,2.1,2.9,3.4c0.4-1.7-0.6-3.5-2.9-4.8
				c-3.9-2.3-10.2-2.3-14.1,0c-2.2,1.3-3.2,3.1-2.8,4.8C24.4,123.3,25.4,122.1,27,121.1z"/>
			<g>
				<path class="st11" d="M46.7,123.8l0,2.6c0,1.9-1.2,3.7-3.7,5.2c-4.9,2.9-13,2.9-17.9,0c-2.5-1.4-3.7-3.3-3.7-5.2l0-2.6
					c0,1.9,1.2,3.8,3.7,5.2c5,2.9,13,2.9,17.9,0C45.5,127.6,46.7,125.7,46.7,123.8z"/>
			</g>
			<g>
				<path class="st9" d="M43,118.6c5,2.9,5,7.5,0.1,10.4c-4.9,2.9-13,2.9-17.9,0c-5-2.9-5-7.5-0.1-10.4C30,115.7,38,115.7,43,118.6z
					 M27,127.9c3.9,2.3,10.2,2.3,14.1,0c3.9-2.3,3.9-5.9,0-8.2c-3.9-2.3-10.2-2.3-14.1,0C23.1,122,23.1,125.6,27,127.9"/>
			</g>
		</g>
	</g>
	<g>
		<g class="st8">
			<g>
				<path class="st9" d="M27.5,119.4c-1.5,0.8-2.4,1.9-2.7,3c0-0.9,0-1.7,0-2.6c0.4-1.1,1.3-2.1,2.7-3c3.9-2.3,10.2-2.3,14.1,0
					c1.9,1.1,2.9,2.6,2.9,4.1c0,0.9,0,1.7,0,2.6c0-1.5-1-3-2.9-4.1C37.7,117.1,31.4,117.1,27.5,119.4z"/>
			</g>
			<g>
				<path class="st9" d="M24.8,122.4c-0.1,0.4-0.2,0.7-0.2,1.1l0-2.6c0-0.4,0.1-0.7,0.2-1.1c0,0.4,0,0.9,0,1.3c0,0.1,0,0.2,0,0.3
					c0,0.2,0,0.3,0,0.5c0,0.1,0,0.2,0,0.3C24.8,122.3,24.8,122.3,24.8,122.4z"/>
			</g>
			<g>
				<path class="st10" d="M44.6,120.9l0,2.6c0,1.5-1,2.9-2.9,4c-3.9,2.3-10.2,2.3-14.1,0c-2-1.1-2.9-2.6-2.9-4.1l0-2.6
					c0,1.5,1,3,2.9,4.1c3.9,2.3,10.2,2.3,14.1,0C43.6,123.9,44.6,122.4,44.6,120.9z"/>
			</g>
			<g>
				<path class="st9" d="M44.5,123.5C44.5,123.5,44.5,123.5,44.5,123.5c0-0.9,0-1.7,0-2.6c0,0,0,0,0,0
					C44.6,121.7,44.6,122.7,44.5,123.5z"/>
			</g>
			<g>
				<path class="st10" d="M41.6,116.8c3.9,2.3,3.9,5.9,0,8.2c-3.9,2.3-10.2,2.3-14.1,0c-3.9-2.3-3.9-5.9,0-8.2
					C31.4,114.6,37.7,114.6,41.6,116.8z"/>
			</g>
			<path class="st11" d="M27.5,118.3c3.9-2.3,10.2-2.3,14.1,0c1.6,0.9,2.6,2.1,2.9,3.4c0.4-1.7-0.6-3.5-2.9-4.8
				c-3.9-2.3-10.2-2.3-14.1,0c-2.2,1.3-3.2,3.1-2.8,4.8C25,120.4,25.9,119.2,27.5,118.3z"/>
			<g>
				<path class="st11" d="M47.3,121l0,2.6c0,1.9-1.2,3.7-3.7,5.2c-4.9,2.9-13,2.9-17.9,0c-2.5-1.4-3.7-3.3-3.7-5.2l0-2.6
					c0,1.9,1.2,3.8,3.7,5.2c5,2.9,13,2.9,17.9,0C46,124.7,47.3,122.8,47.3,121z"/>
			</g>
			<g>
				<path class="st9" d="M43.5,115.7c5,2.9,5,7.5,0.1,10.4c-4.9,2.9-13,2.9-17.9,0c-5-2.9-5-7.5-0.1-10.4
					C30.5,112.9,38.6,112.9,43.5,115.7z M27.6,125c3.9,2.3,10.2,2.3,14.1,0c3.9-2.3,3.9-5.9,0-8.2c-3.9-2.3-10.2-2.3-14.1,0
					C23.7,119.1,23.7,122.7,27.6,125"/>
			</g>
		</g>
	</g>
	<g>
		<g class="st8">
			<g>
				<path class="st9" d="M28.1,116.8c-1.5,0.8-2.4,1.9-2.7,3c0-0.9,0-1.7,0-2.6c0.4-1.1,1.3-2.1,2.7-3c3.9-2.3,10.2-2.3,14.1,0
					c1.9,1.1,2.9,2.6,2.9,4.1c0,0.9,0,1.7,0,2.6c0-1.5-1-3-2.9-4.1C38.3,114.5,32,114.5,28.1,116.8z"/>
			</g>
			<g>
				<path class="st9" d="M25.4,119.8c-0.1,0.4-0.2,0.7-0.2,1.1l0-2.6c0-0.4,0.1-0.7,0.2-1.1c0,0.4,0,0.9,0,1.3c0,0.1,0,0.2,0,0.3
					c0,0.2,0,0.3,0,0.5c0,0.1,0,0.2,0,0.3C25.4,119.7,25.4,119.7,25.4,119.8z"/>
			</g>
			<g>
				<path class="st10" d="M45.1,118.3l0,2.6c0,1.5-1,2.9-2.9,4c-3.9,2.3-10.2,2.3-14.1,0c-2-1.1-2.9-2.6-2.9-4.1l0-2.6
					c0,1.5,1,3,2.9,4.1c3.9,2.3,10.2,2.3,14.1,0C44.2,121.3,45.1,119.8,45.1,118.3z"/>
			</g>
			<g>
				<path class="st9" d="M45.1,120.9C45.1,120.9,45.1,120.9,45.1,120.9c0-0.9,0-1.7,0-2.6c0,0,0,0,0,0
					C45.1,119.1,45.1,120.1,45.1,120.9z"/>
			</g>
			<g>
				<path class="st10" d="M42.2,114.2c3.9,2.3,3.9,5.9,0,8.2c-3.9,2.3-10.2,2.3-14.1,0c-3.9-2.3-3.9-5.9,0-8.2
					C32,112,38.3,112,42.2,114.2z"/>
			</g>
			<path class="st11" d="M28.1,115.7c3.9-2.3,10.2-2.3,14.1,0c1.6,0.9,2.6,2.1,2.9,3.4c0.4-1.7-0.6-3.5-2.9-4.8
				c-3.9-2.3-10.2-2.3-14.1,0c-2.2,1.3-3.2,3.1-2.8,4.8C25.6,117.8,26.5,116.6,28.1,115.7z"/>
			<g>
				<path class="st11" d="M47.8,118.4l0,2.6c0,1.9-1.2,3.7-3.7,5.2c-4.9,2.9-13,2.9-17.9,0c-2.5-1.4-3.7-3.3-3.7-5.2l0-2.6
					c0,1.9,1.2,3.8,3.7,5.2c5,2.9,13,2.9,17.9,0C46.6,122.1,47.8,120.2,47.8,118.4z"/>
			</g>
			<g>
				<path class="st9" d="M44.1,113.1c5,2.9,5,7.5,0.1,10.4c-4.9,2.9-13,2.9-17.9,0c-5-2.9-5-7.5-0.1-10.4
					C31.1,110.3,39.1,110.3,44.1,113.1z M28.2,122.4c3.9,2.3,10.2,2.3,14.1,0c3.9-2.3,3.9-5.9,0-8.2c-3.9-2.3-10.2-2.3-14.1,0
					C24.2,116.5,24.3,120.1,28.2,122.4"/>
			</g>
		</g>
	</g>
	<g>
		<g class="st8">
			<g>
				<path class="st9" d="M27,113.6c-1.5,0.8-2.4,1.9-2.7,3c0-0.9,0-1.7,0-2.6c0.4-1.1,1.3-2.1,2.7-3c3.9-2.3,10.2-2.3,14.1,0
					c1.9,1.1,2.9,2.6,2.9,4.1c0,0.9,0,1.7,0,2.6c0-1.5-1-3-2.9-4.1C37.1,111.4,30.8,111.4,27,113.6z"/>
			</g>
			<g>
				<path class="st9" d="M24.2,116.6c-0.1,0.4-0.2,0.7-0.2,1.1l0-2.6c0-0.4,0.1-0.7,0.2-1.1c0,0.4,0,0.9,0,1.3c0,0.1,0,0.2,0,0.3
					c0,0.2,0,0.3,0,0.5c0,0.1,0,0.2,0,0.3C24.2,116.5,24.3,116.6,24.2,116.6z"/>
			</g>
			<g>
				<path class="st10" d="M44,115.2l0,2.6c0,1.5-1,2.9-2.9,4c-3.9,2.3-10.2,2.3-14.1,0c-2-1.1-2.9-2.6-2.9-4.1l0-2.6
					c0,1.5,1,3,2.9,4.1c3.9,2.3,10.2,2.3,14.1,0C43,118.1,44,116.6,44,115.2z"/>
			</g>
			<g>
				<path class="st9" d="M44,117.7C44,117.7,44,117.7,44,117.7c0-0.9,0-1.7,0-2.6c0,0,0,0,0,0C44,115.9,44,117,44,117.7z"/>
			</g>
			<g>
				<path class="st10" d="M41.1,111.1c3.9,2.3,3.9,5.9,0,8.2c-3.9,2.3-10.2,2.3-14.1,0c-3.9-2.3-3.9-5.9,0-8.2
					C30.8,108.8,37.1,108.8,41.1,111.1z"/>
			</g>
			<path class="st11" d="M27,112.5c3.9-2.3,10.2-2.3,14.1,0c1.6,0.9,2.6,2.1,2.9,3.4c0.4-1.7-0.6-3.5-2.9-4.8
				c-3.9-2.3-10.2-2.3-14.1,0c-2.2,1.3-3.2,3.1-2.8,4.8C24.4,114.6,25.4,113.4,27,112.5z"/>
			<g>
				<path class="st11" d="M46.7,115.2l0,2.6c0,1.9-1.2,3.7-3.7,5.2c-4.9,2.9-13,2.9-17.9,0c-2.5-1.4-3.7-3.3-3.7-5.2l0-2.6
					c0,1.9,1.2,3.8,3.7,5.2c5,2.9,13,2.9,17.9,0C45.5,118.9,46.7,117.1,46.7,115.2z"/>
			</g>
			<g>
				<path class="st9" d="M43,110c5,2.9,5,7.5,0.1,10.4c-4.9,2.9-13,2.9-17.9,0c-5-2.9-5-7.5-0.1-10.4C30,107.1,38,107.1,43,110z
					 M27,119.2c3.9,2.3,10.2,2.3,14.1,0c3.9-2.3,3.9-5.9,0-8.2c-3.9-2.3-10.2-2.3-14.1,0C23.1,113.3,23.1,117,27,119.2"/>
			</g>
		</g>
	</g>
	<g>
		<g class="st8">
			<g>
				<path class="st9" d="M28.1,110.7c-1.5,0.8-2.4,1.9-2.7,3c0-0.9,0-1.7,0-2.6c0.4-1.1,1.3-2.1,2.7-3c3.9-2.3,10.2-2.3,14.1,0
					c1.9,1.1,2.9,2.6,2.9,4.1c0,0.9,0,1.7,0,2.6c0-1.5-1-3-2.9-4.1C38.3,108.5,32,108.5,28.1,110.7z"/>
			</g>
			<g>
				<path class="st9" d="M25.4,113.7c-0.1,0.4-0.2,0.7-0.2,1.1l0-2.6c0-0.4,0.1-0.7,0.2-1.1c0,0.4,0,0.9,0,1.3c0,0.1,0,0.2,0,0.3
					c0,0.2,0,0.3,0,0.5c0,0.1,0,0.2,0,0.3C25.4,113.6,25.4,113.7,25.4,113.7z"/>
			</g>
			<g>
				<path class="st10" d="M45.1,112.3l0,2.6c0,1.5-1,2.9-2.9,4c-3.9,2.3-10.2,2.3-14.1,0c-2-1.1-2.9-2.6-2.9-4.1l0-2.6
					c0,1.5,1,3,2.9,4.1c3.9,2.3,10.2,2.3,14.1,0C44.2,115.2,45.1,113.8,45.1,112.3z"/>
			</g>
			<g>
				<path class="st9" d="M45.1,114.8C45.1,114.8,45.1,114.8,45.1,114.8c0-0.9,0-1.7,0-2.6c0,0,0,0,0,0
					C45.1,113.1,45.1,114.1,45.1,114.8z"/>
			</g>
			<g>
				<path class="st10" d="M42.2,108.2c3.9,2.3,3.9,5.9,0,8.2c-3.9,2.3-10.2,2.3-14.1,0c-3.9-2.3-3.9-5.9,0-8.2
					C32,105.9,38.3,105.9,42.2,108.2z"/>
			</g>
			<path class="st11" d="M28.1,109.6c3.9-2.3,10.2-2.3,14.1,0c1.6,0.9,2.6,2.1,2.9,3.4c0.4-1.7-0.6-3.5-2.9-4.8
				c-3.9-2.3-10.2-2.3-14.1,0c-2.2,1.3-3.2,3.1-2.8,4.8C25.6,111.7,26.5,110.6,28.1,109.6z"/>
			<g>
				<path class="st11" d="M47.8,112.3l0,2.6c0,1.9-1.2,3.7-3.7,5.2c-4.9,2.9-13,2.9-17.9,0c-2.5-1.4-3.7-3.3-3.7-5.2l0-2.6
					c0,1.9,1.2,3.8,3.7,5.2c5,2.9,13,2.9,17.9,0C46.6,116,47.8,114.2,47.8,112.3z"/>
			</g>
			<g>
				<path class="st9" d="M44.1,107.1c5,2.9,5,7.5,0.1,10.4c-4.9,2.9-13,2.9-17.9,0c-5-2.9-5-7.5-0.1-10.4
					C31.1,104.2,39.1,104.2,44.1,107.1z M28.2,116.3c3.9,2.3,10.2,2.3,14.1,0c3.9-2.3,3.9-5.9,0-8.2c-3.9-2.3-10.2-2.3-14.1,0
					C24.2,110.4,24.3,114.1,28.2,116.3"/>
			</g>
		</g>
	</g>
	<g>
		<g class="st8">
			<g>
				<path class="st9" d="M27.2,107.9c-1.5,0.8-2.4,1.9-2.7,3c0-0.9,0-1.7,0-2.6c0.4-1.1,1.3-2.1,2.7-3c3.9-2.3,10.2-2.3,14.1,0
					c1.9,1.1,2.9,2.6,2.9,4.1c0,0.9,0,1.7,0,2.6c0-1.5-1-3-2.9-4.1C37.4,105.6,31.1,105.6,27.2,107.9z"/>
			</g>
			<g>
				<path class="st9" d="M24.5,110.8c-0.1,0.4-0.2,0.7-0.2,1.1l0-2.6c0-0.4,0.1-0.7,0.2-1.1c0,0.4,0,0.9,0,1.3c0,0.1,0,0.2,0,0.3
					c0,0.2,0,0.3,0,0.5c0,0.1,0,0.2,0,0.3C24.5,110.7,24.5,110.8,24.5,110.8z"/>
			</g>
			<g>
				<path class="st10" d="M44.3,109.4l0,2.6c0,1.5-1,2.9-2.9,4c-3.9,2.3-10.2,2.3-14.1,0c-2-1.1-2.9-2.6-2.9-4.1l0-2.6
					c0,1.5,1,3,2.9,4.1c3.9,2.3,10.2,2.3,14.1,0C43.3,112.3,44.3,110.9,44.3,109.4z"/>
			</g>
			<g>
				<path class="st9" d="M44.3,112C44.3,112,44.3,111.9,44.3,112c0-0.9,0-1.7,0-2.6c0,0,0,0,0,0C44.3,110.2,44.3,111.2,44.3,112z"/>
			</g>
			<g>
				<path class="st10" d="M41.3,105.3c3.9,2.3,3.9,5.9,0,8.2c-3.9,2.3-10.2,2.3-14.1,0c-3.9-2.3-3.9-5.9,0-8.2
					C31.1,103.1,37.4,103.1,41.3,105.3z"/>
			</g>
			<path class="st11" d="M27.3,106.7c3.9-2.3,10.2-2.3,14.1,0c1.6,0.9,2.6,2.1,2.9,3.4c0.4-1.7-0.6-3.5-2.9-4.8
				c-3.9-2.3-10.2-2.3-14.1,0c-2.2,1.3-3.2,3.1-2.8,4.8C24.7,108.9,25.6,107.7,27.3,106.7z"/>
			<g>
				<path class="st11" d="M47,109.4l0,2.6c0,1.9-1.2,3.7-3.7,5.2c-4.9,2.9-13,2.9-17.9,0c-2.5-1.4-3.7-3.3-3.7-5.2l0-2.6
					c0,1.9,1.2,3.8,3.7,5.2c5,2.9,13,2.9,17.9,0C45.8,113.2,47,111.3,47,109.4z"/>
			</g>
			<g>
				<path class="st9" d="M43.2,104.2c5,2.9,5,7.5,0.1,10.4c-4.9,2.9-13,2.9-17.9,0c-5-2.9-5-7.5-0.1-10.4
					C30.3,101.3,38.3,101.3,43.2,104.2z M27.3,113.5c3.9,2.3,10.2,2.3,14.1,0c3.9-2.3,3.9-5.9,0-8.2c-3.9-2.3-10.2-2.3-14.1,0
					C23.4,107.6,23.4,111.2,27.3,113.5"/>
			</g>
		</g>
	</g>
	<g>
		<g class="st8">
			<g>
				<path class="st9" d="M27.5,105c-1.5,0.8-2.4,1.9-2.7,3c0-0.9,0-1.7,0-2.6c0.4-1.1,1.3-2.1,2.7-3c3.9-2.3,10.2-2.3,14.1,0
					c1.9,1.1,2.9,2.6,2.9,4.1c0,0.9,0,1.7,0,2.6c0-1.5-1-3-2.9-4.1C37.7,102.7,31.4,102.7,27.5,105z"/>
			</g>
			<g>
				<path class="st9" d="M24.8,108c-0.1,0.4-0.2,0.7-0.2,1.1l0-2.6c0-0.4,0.1-0.7,0.2-1.1c0,0.4,0,0.9,0,1.3c0,0.1,0,0.2,0,0.3
					c0,0.2,0,0.3,0,0.5c0,0.1,0,0.2,0,0.3C24.8,107.8,24.8,107.9,24.8,108z"/>
			</g>
			<g>
				<path class="st10" d="M44.6,106.5l0,2.6c0,1.5-1,2.9-2.9,4c-3.9,2.3-10.2,2.3-14.1,0c-2-1.1-2.9-2.6-2.9-4.1l0-2.6
					c0,1.5,1,3,2.9,4.1c3.9,2.3,10.2,2.3,14.1,0C43.6,109.5,44.6,108,44.6,106.5z"/>
			</g>
			<g>
				<path class="st9" d="M44.5,109.1C44.5,109.1,44.5,109.1,44.5,109.1c0-0.9,0-1.7,0-2.6c0,0,0,0,0,0
					C44.6,107.3,44.6,108.3,44.5,109.1z"/>
			</g>
			<g>
				<path class="st10" d="M41.6,102.4c3.9,2.3,3.9,5.9,0,8.2c-3.9,2.3-10.2,2.3-14.1,0c-3.9-2.3-3.9-5.9,0-8.2
					C31.4,100.2,37.7,100.2,41.6,102.4z"/>
			</g>
			<path class="st11" d="M27.5,103.8c3.9-2.3,10.2-2.3,14.1,0c1.6,0.9,2.6,2.1,2.9,3.4c0.4-1.7-0.6-3.5-2.9-4.8
				c-3.9-2.3-10.2-2.3-14.1,0c-2.2,1.3-3.2,3.1-2.8,4.8C25,106,25.9,104.8,27.5,103.8z"/>
			<g>
				<path class="st11" d="M47.3,106.5l0,2.6c0,1.9-1.2,3.7-3.7,5.2c-4.9,2.9-13,2.9-17.9,0c-2.5-1.4-3.7-3.3-3.7-5.2l0-2.6
					c0,1.9,1.2,3.8,3.7,5.2c5,2.9,13,2.9,17.9,0C46,110.3,47.3,108.4,47.3,106.5z"/>
			</g>
			<g>
				<path class="st9" d="M43.5,101.3c5,2.9,5,7.5,0.1,10.4c-4.9,2.9-13,2.9-17.9,0c-5-2.9-5-7.5-0.1-10.4
					C30.5,98.4,38.6,98.4,43.5,101.3z M27.6,110.6c3.9,2.3,10.2,2.3,14.1,0c3.9-2.3,3.9-5.9,0-8.2c-3.9-2.3-10.2-2.3-14.1,0
					C23.7,104.7,23.7,108.3,27.6,110.6"/>
			</g>
		</g>
	</g>
</g>
<path class="st0" d="M60.6,144.9c-5.5-2.9-14.4-2.9-19.9,0c-5.5,2.9-5.4,7.5,0.1,10.4c5.5,2.9,14.4,2.9,19.9,0
	C66.1,152.4,66.1,147.7,60.6,144.9z M39.8,149.1L39.8,149.1c0-0.1,0-0.1,0.1-0.2C39.8,149,39.8,149.1,39.8,149.1z"/>
<path class="st0" d="M53.5,165.1c-3.8-2-10-2-13.7,0c-3.8,2-3.8,5.2,0,7.2c3.8,2,10,2,13.7,0C57.4,170.3,57.3,167,53.5,165.1z
	 M39.2,168L39.2,168c0,0,0-0.1,0-0.1C39.2,167.9,39.2,168,39.2,168z"/>
<g>
	<g>
		<g class="st8">
			<g>
				<path class="st9" d="M45,145.6c-1.5,0.8-2.4,1.9-2.7,3c0-0.9,0-1.7,0-2.6c0.4-1.1,1.3-2.1,2.7-3c3.9-2.3,10.2-2.3,14.1,0
					c1.9,1.1,2.9,2.6,2.9,4.1c0,0.9,0,1.7,0,2.6c0-1.5-1-3-2.9-4.1C55.1,143.4,48.8,143.4,45,145.6z"/>
			</g>
			<g>
				<path class="st9" d="M42.2,148.6c-0.1,0.4-0.2,0.7-0.2,1.1l0-2.6c0-0.4,0.1-0.7,0.2-1.1c0,0.4,0,0.9,0,1.3c0,0.1,0,0.2,0,0.3
					c0,0.2,0,0.3,0,0.5c0,0.1,0,0.2,0,0.3C42.2,148.5,42.3,148.6,42.2,148.6z"/>
			</g>
			<g>
				<path class="st10" d="M62,147.2l0,2.6c0,1.5-1,2.9-2.9,4c-3.9,2.3-10.2,2.3-14.1,0c-2-1.1-2.9-2.6-2.9-4.1l0-2.6
					c0,1.5,1,3,2.9,4.1c3.9,2.3,10.2,2.3,14.1,0C61,150.1,62,148.7,62,147.2z"/>
			</g>
			<g>
				<path class="st9" d="M62,149.7C62,149.7,62,149.7,62,149.7c0-0.9,0-1.7,0-2.6c0,0,0,0,0,0C62,148,62,149,62,149.7z"/>
			</g>
			<g>
				<path class="st10" d="M59.1,143.1c3.9,2.3,3.9,5.9,0,8.2s-10.2,2.3-14.1,0c-3.9-2.3-3.9-5.9,0-8.2
					C48.8,140.8,55.2,140.8,59.1,143.1z"/>
			</g>
			<path class="st11" d="M45,144.5c3.9-2.3,10.2-2.3,14.1,0c1.6,0.9,2.6,2.1,2.9,3.4c0.4-1.7-0.6-3.5-2.9-4.8
				c-3.9-2.3-10.2-2.3-14.1,0c-2.2,1.3-3.2,3.1-2.8,4.8C42.4,146.6,43.4,145.4,45,144.5z"/>
			<g>
				<path class="st11" d="M64.7,147.2l0,2.6c0,1.9-1.2,3.7-3.7,5.2c-4.9,2.9-13,2.9-17.9,0c-2.5-1.4-3.7-3.3-3.7-5.2l0-2.6
					c0,1.9,1.2,3.8,3.7,5.2c5,2.9,13,2.9,17.9,0C63.5,150.9,64.7,149.1,64.7,147.2z"/>
			</g>
			<g>
				<path class="st9" d="M61,142c5,2.9,5,7.5,0.1,10.4c-4.9,2.9-13,2.9-17.9,0c-5-2.9-5-7.5-0.1-10.4C48,139.1,56,139.1,61,142z
					 M45,151.2c3.9,2.3,10.2,2.3,14.1,0c3.9-2.3,3.9-5.9,0-8.2c-3.9-2.3-10.2-2.3-14.1,0C41.1,145.3,41.1,149,45,151.2"/>
			</g>
		</g>
	</g>
	<g>
		<g class="st8">
			<g>
				<path class="st9" d="M45,142.7c-1.5,0.8-2.4,1.9-2.7,3c0-0.9,0-1.7,0-2.6c0.4-1.1,1.3-2.1,2.7-3c3.9-2.3,10.2-2.3,14.1,0
					c1.9,1.1,2.9,2.6,2.9,4.1c0,0.9,0,1.7,0,2.6c0-1.5-1-3-2.9-4.1C55.1,140.5,48.8,140.5,45,142.7z"/>
			</g>
			<g>
				<path class="st9" d="M42.2,145.7c-0.1,0.4-0.2,0.7-0.2,1.1l0-2.6c0-0.4,0.1-0.7,0.2-1.1c0,0.4,0,0.9,0,1.3c0,0.1,0,0.2,0,0.3
					c0,0.2,0,0.3,0,0.5c0,0.1,0,0.2,0,0.3C42.2,145.6,42.3,145.7,42.2,145.7z"/>
			</g>
			<g>
				<path class="st10" d="M62,144.3l0,2.6c0,1.5-1,2.9-2.9,4c-3.9,2.3-10.2,2.3-14.1,0c-2-1.1-2.9-2.6-2.9-4.1l0-2.6
					c0,1.5,1,3,2.9,4.1c3.9,2.3,10.2,2.3,14.1,0C61,147.2,62,145.8,62,144.3z"/>
			</g>
			<g>
				<path class="st9" d="M62,146.9C62,146.8,62,146.8,62,146.9c0-0.9,0-1.7,0-2.6c0,0,0,0,0,0C62,145.1,62,146.1,62,146.9z"/>
			</g>
			<g>
				<path class="st10" d="M59.1,140.2c3.9,2.3,3.9,5.9,0,8.2s-10.2,2.3-14.1,0c-3.9-2.3-3.9-5.9,0-8.2
					C48.8,137.9,55.2,137.9,59.1,140.2z"/>
			</g>
			<path class="st11" d="M45,141.6c3.9-2.3,10.2-2.3,14.1,0c1.6,0.9,2.6,2.1,2.9,3.4c0.4-1.7-0.6-3.5-2.9-4.8
				c-3.9-2.3-10.2-2.3-14.1,0c-2.2,1.3-3.2,3.1-2.8,4.8C42.4,143.7,43.4,142.6,45,141.6z"/>
			<g>
				<path class="st11" d="M64.7,144.3l0,2.6c0,1.9-1.2,3.7-3.7,5.2c-4.9,2.9-13,2.9-17.9,0c-2.5-1.4-3.7-3.3-3.7-5.2l0-2.6
					c0,1.9,1.2,3.8,3.7,5.2c5,2.9,13,2.9,17.9,0C63.5,148,64.7,146.2,64.7,144.3z"/>
			</g>
			<g>
				<path class="st9" d="M61,139.1c5,2.9,5,7.5,0.1,10.4c-4.9,2.9-13,2.9-17.9,0c-5-2.9-5-7.5-0.1-10.4C48,136.2,56,136.2,61,139.1z
					 M45,148.4c3.9,2.3,10.2,2.3,14.1,0c3.9-2.3,3.9-5.9,0-8.2c-3.9-2.3-10.2-2.3-14.1,0C41.1,142.4,41.1,146.1,45,148.4"/>
			</g>
		</g>
	</g>
	<g>
		<g class="st8">
			<g>
				<path class="st9" d="M44.4,139.9c-1.5,0.8-2.4,1.9-2.7,3c0-0.9,0-1.7,0-2.6c0.4-1.1,1.3-2.1,2.7-3c3.9-2.3,10.2-2.3,14.1,0
					c1.9,1.1,2.9,2.6,2.9,4.1c0,0.9,0,1.7,0,2.6c0-1.5-1-3-2.9-4.1C54.6,137.6,48.3,137.6,44.4,139.9z"/>
			</g>
			<g>
				<path class="st9" d="M41.7,142.8c-0.1,0.4-0.2,0.7-0.2,1.1l0-2.6c0-0.4,0.1-0.7,0.2-1.1c0,0.4,0,0.9,0,1.3c0,0.1,0,0.2,0,0.3
					c0,0.2,0,0.3,0,0.5c0,0.1,0,0.2,0,0.3C41.7,142.7,41.7,142.8,41.7,142.8z"/>
			</g>
			<g>
				<path class="st10" d="M61.4,141.4l0,2.6c0,1.5-1,2.9-2.9,4c-3.9,2.3-10.2,2.3-14.1,0c-2-1.1-2.9-2.6-2.9-4.1l0-2.6
					c0,1.5,1,3,2.9,4.1c3.9,2.3,10.2,2.3,14.1,0C60.5,144.3,61.4,142.9,61.4,141.4z"/>
			</g>
			<g>
				<path class="st9" d="M61.4,144C61.4,144,61.4,144,61.4,144c0-0.9,0-1.7,0-2.6c0,0,0,0,0,0C61.4,142.2,61.4,143.2,61.4,144z"/>
			</g>
			<g>
				<path class="st10" d="M58.5,137.3c3.9,2.3,3.9,5.9,0,8.2s-10.2,2.3-14.1,0c-3.9-2.3-3.9-5.9,0-8.2
					C48.3,135.1,54.6,135.1,58.5,137.3z"/>
			</g>
			<path class="st11" d="M44.4,138.7c3.9-2.3,10.2-2.3,14.1,0c1.6,0.9,2.6,2.1,2.9,3.4c0.4-1.7-0.6-3.5-2.9-4.8
				c-3.9-2.3-10.2-2.3-14.1,0c-2.2,1.3-3.2,3.1-2.8,4.8C41.9,140.9,42.8,139.7,44.4,138.7z"/>
			<g>
				<path class="st11" d="M64.1,141.4l0,2.6c0,1.9-1.2,3.7-3.7,5.2c-4.9,2.9-13,2.9-17.9,0c-2.5-1.4-3.7-3.3-3.7-5.2l0-2.6
					c0,1.9,1.2,3.8,3.7,5.2c5,2.9,13,2.9,17.9,0C62.9,145.2,64.1,143.3,64.1,141.4z"/>
			</g>
			<g>
				<path class="st9" d="M60.4,136.2c5,2.9,5,7.5,0.1,10.4c-4.9,2.9-13,2.9-17.9,0c-5-2.9-5-7.5-0.1-10.4
					C47.4,133.3,55.4,133.3,60.4,136.2z M44.5,145.5c3.9,2.3,10.2,2.3,14.1,0s3.9-5.9,0-8.2c-3.9-2.3-10.2-2.3-14.1,0
					C40.5,139.6,40.5,143.2,44.5,145.5"/>
			</g>
		</g>
	</g>
	<g>
		<g class="st8">
			<g>
				<path class="st9" d="M45.5,137c-1.5,0.8-2.4,1.9-2.7,3c0-0.9,0-1.7,0-2.6c0.4-1.1,1.3-2.1,2.7-3c3.9-2.3,10.2-2.3,14.1,0
					c1.9,1.1,2.9,2.6,2.9,4.1c0,0.9,0,1.7,0,2.6c0-1.5-1-3-2.9-4.1C55.7,134.7,49.4,134.7,45.5,137z"/>
			</g>
			<g>
				<path class="st9" d="M42.8,140c-0.1,0.4-0.2,0.7-0.2,1.1l0-2.6c0-0.4,0.1-0.7,0.2-1.1c0,0.4,0,0.9,0,1.3c0,0.1,0,0.2,0,0.3
					c0,0.2,0,0.3,0,0.5c0,0.1,0,0.2,0,0.3C42.8,139.9,42.8,139.9,42.8,140z"/>
			</g>
			<g>
				<path class="st10" d="M62.6,138.5l0,2.6c0,1.5-1,2.9-2.9,4c-3.9,2.3-10.2,2.3-14.1,0c-2-1.1-2.9-2.6-2.9-4.1l0-2.6
					c0,1.5,1,3,2.9,4.1c3.9,2.3,10.2,2.3,14.1,0C61.6,141.5,62.6,140,62.6,138.5z"/>
			</g>
			<g>
				<path class="st9" d="M62.5,141.1C62.5,141.1,62.5,141.1,62.5,141.1c0-0.9,0-1.7,0-2.6c0,0,0,0,0,0
					C62.6,139.3,62.6,140.3,62.5,141.1z"/>
			</g>
			<g>
				<path class="st10" d="M59.6,134.4c3.9,2.3,3.9,5.9,0,8.2s-10.2,2.3-14.1,0c-3.9-2.3-3.9-5.9,0-8.2
					C49.4,132.2,55.7,132.2,59.6,134.4z"/>
			</g>
			<path class="st11" d="M45.5,135.9c3.9-2.3,10.2-2.3,14.1,0c1.6,0.9,2.6,2.1,2.9,3.4c0.4-1.7-0.6-3.5-2.9-4.8
				c-3.9-2.3-10.2-2.3-14.1,0c-2.2,1.3-3.2,3.1-2.8,4.8C43,138,43.9,136.8,45.5,135.9z"/>
			<g>
				<path class="st11" d="M65.3,138.5l0,2.6c0,1.9-1.2,3.7-3.7,5.2c-4.9,2.9-13,2.9-17.9,0c-2.5-1.4-3.7-3.3-3.7-5.2l0-2.6
					c0,1.9,1.2,3.8,3.7,5.2c5,2.9,13,2.9,17.9,0C64,142.3,65.3,140.4,65.3,138.5z"/>
			</g>
			<g>
				<path class="st9" d="M61.5,133.3c5,2.9,5,7.5,0.1,10.4c-4.9,2.9-13,2.9-17.9,0c-5-2.9-5-7.5-0.1-10.4
					C48.5,130.5,56.6,130.5,61.5,133.3z M45.6,142.6c3.9,2.3,10.2,2.3,14.1,0s3.9-5.9,0-8.2c-3.9-2.3-10.2-2.3-14.1,0
					C41.7,136.7,41.7,140.3,45.6,142.6"/>
			</g>
		</g>
	</g>
	<g>
		<g class="st8">
			<g>
				<path class="st9" d="M44.4,134.1c-1.5,0.8-2.4,1.9-2.7,3c0-0.9,0-1.7,0-2.6c0.4-1.1,1.3-2.1,2.7-3c3.9-2.3,10.2-2.3,14.1,0
					c1.9,1.1,2.9,2.6,2.9,4.1c0,0.9,0,1.7,0,2.6c0-1.5-1-3-2.9-4.1C54.6,131.8,48.3,131.8,44.4,134.1z"/>
			</g>
			<g>
				<path class="st9" d="M41.7,137.1c-0.1,0.4-0.2,0.7-0.2,1.1l0-2.6c0-0.4,0.1-0.7,0.2-1.1c0,0.4,0,0.9,0,1.3c0,0.1,0,0.2,0,0.3
					c0,0.2,0,0.3,0,0.5c0,0.1,0,0.2,0,0.3C41.7,137,41.7,137,41.7,137.1z"/>
			</g>
			<g>
				<path class="st10" d="M61.4,135.7l0,2.6c0,1.5-1,2.9-2.9,4c-3.9,2.3-10.2,2.3-14.1,0c-2-1.1-2.9-2.6-2.9-4.1l0-2.6
					c0,1.5,1,3,2.9,4.1c3.9,2.3,10.2,2.3,14.1,0C60.5,138.6,61.4,137.1,61.4,135.7z"/>
			</g>
			<g>
				<path class="st9" d="M61.4,138.2C61.4,138.2,61.4,138.2,61.4,138.2c0-0.9,0-1.7,0-2.6c0,0,0,0,0,0
					C61.4,136.4,61.4,137.4,61.4,138.2z"/>
			</g>
			<g>
				<path class="st10" d="M58.5,131.5c3.9,2.3,3.9,5.9,0,8.2s-10.2,2.3-14.1,0c-3.9-2.3-3.9-5.9,0-8.2
					C48.3,129.3,54.6,129.3,58.5,131.5z"/>
			</g>
			<path class="st11" d="M44.4,133c3.9-2.3,10.2-2.3,14.1,0c1.6,0.9,2.6,2.1,2.9,3.4c0.4-1.7-0.6-3.5-2.9-4.8
				c-3.9-2.3-10.2-2.3-14.1,0c-2.2,1.3-3.2,3.1-2.8,4.8C41.9,135.1,42.8,133.9,44.4,133z"/>
			<g>
				<path class="st11" d="M64.1,135.7l0,2.6c0,1.9-1.2,3.7-3.7,5.2c-4.9,2.9-13,2.9-17.9,0c-2.5-1.4-3.7-3.3-3.7-5.2l0-2.6
					c0,1.9,1.2,3.8,3.7,5.2c5,2.9,13,2.9,17.9,0C62.9,139.4,64.1,137.5,64.1,135.7z"/>
			</g>
			<g>
				<path class="st9" d="M60.4,130.4c5,2.9,5,7.5,0.1,10.4c-4.9,2.9-13,2.9-17.9,0c-5-2.9-5-7.5-0.1-10.4
					C47.4,127.6,55.4,127.6,60.4,130.4z M44.5,139.7c3.9,2.3,10.2,2.3,14.1,0s3.9-5.9,0-8.2c-3.9-2.3-10.2-2.3-14.1,0
					C40.5,133.8,40.5,137.5,44.5,139.7"/>
			</g>
		</g>
	</g>
</g>
<path class="st0" d="M35.3,151.6c-5.5-2.9-14.4-2.9-19.8,0c-5.5,2.9-5.4,7.5,0.1,10.4c5.5,2.9,14.4,2.9,19.8,0
	C40.8,159.1,40.7,154.5,35.3,151.6z"/>
<g>
	<g>
		<g class="st8">
			<g>
				<path class="st9" d="M19.6,152.7c-1.5,0.8-2.4,1.9-2.7,3c0-0.9,0-1.7,0-2.6c0.4-1.1,1.3-2.1,2.7-3c3.9-2.3,10.2-2.3,14.1,0
					c1.9,1.1,2.9,2.6,2.9,4.1c0,0.9,0,1.7,0,2.6c0-1.5-1-3-2.9-4.1C29.8,150.4,23.5,150.4,19.6,152.7z"/>
			</g>
			<g>
				<path class="st9" d="M16.9,155.6c-0.1,0.4-0.2,0.7-0.2,1.1l0-2.6c0-0.4,0.1-0.7,0.2-1.1c0,0.4,0,0.9,0,1.3c0,0.1,0,0.2,0,0.3
					c0,0.2,0,0.3,0,0.5c0,0.1,0,0.2,0,0.3C16.9,155.5,16.9,155.6,16.9,155.6z"/>
			</g>
			<g>
				<path class="st10" d="M36.6,154.2l0,2.6c0,1.5-1,2.9-2.9,4c-3.9,2.3-10.2,2.3-14.1,0c-2-1.1-2.9-2.6-2.9-4.1l0-2.6
					c0,1.5,1,3,2.9,4.1c3.9,2.3,10.2,2.3,14.1,0C35.7,157.2,36.6,155.7,36.6,154.2z"/>
			</g>
			<g>
				<path class="st9" d="M36.6,156.8C36.6,156.8,36.6,156.8,36.6,156.8c0-0.9,0-1.7,0-2.6c0,0,0,0,0,0C36.6,155,36.6,156,36.6,156.8
					z"/>
			</g>
			<g>
				<path class="st10" d="M33.7,150.1c3.9,2.3,3.9,5.9,0,8.2c-3.9,2.3-10.2,2.3-14.1,0c-3.9-2.3-3.9-5.9,0-8.2
					C23.5,147.9,29.8,147.9,33.7,150.1z"/>
			</g>
			<path class="st11" d="M19.6,151.5c3.9-2.3,10.2-2.3,14.1,0c1.6,0.9,2.6,2.1,2.9,3.4c0.4-1.7-0.6-3.5-2.9-4.8
				c-3.9-2.3-10.2-2.3-14.1,0c-2.2,1.3-3.2,3.1-2.8,4.8C17.1,153.7,18,152.5,19.6,151.5z"/>
			<g>
				<path class="st11" d="M39.4,154.2l0,2.6c0,1.9-1.2,3.7-3.7,5.2c-4.9,2.9-13,2.9-17.9,0c-2.5-1.4-3.7-3.3-3.7-5.2l0-2.6
					c0,1.9,1.2,3.8,3.7,5.2c5,2.9,13,2.9,17.9,0C38.1,158,39.4,156.1,39.4,154.2z"/>
			</g>
			<g>
				<path class="st9" d="M35.6,149c5,2.9,5,7.5,0.1,10.4c-4.9,2.9-13,2.9-17.9,0c-5-2.9-5-7.5-0.1-10.4
					C22.6,146.1,30.7,146.1,35.6,149z M19.7,158.3c3.9,2.3,10.2,2.3,14.1,0c3.9-2.3,3.9-5.9,0-8.2c-3.9-2.3-10.2-2.3-14.1,0
					C15.8,152.4,15.8,156,19.7,158.3"/>
			</g>
		</g>
	</g>
	<g>
		<g class="st8">
			<g>
				<path class="st9" d="M18.8,149.2c-1.5,0.8-2.4,1.9-2.7,3c0-0.9,0-1.7,0-2.6c0.4-1.1,1.3-2.1,2.7-3c3.9-2.3,10.2-2.3,14.1,0
					c1.9,1.1,2.9,2.6,2.9,4.1c0,0.9,0,1.7,0,2.6c0-1.5-1-3-2.9-4.1C29,146.9,22.6,146.9,18.8,149.2z"/>
			</g>
			<g>
				<path class="st9" d="M16.1,152.1c-0.1,0.4-0.2,0.7-0.2,1.1l0-2.6c0-0.4,0.1-0.7,0.2-1.1c0,0.4,0,0.9,0,1.3c0,0.1,0,0.2,0,0.3
					c0,0.2,0,0.3,0,0.5c0,0.1,0,0.2,0,0.3C16.1,152,16.1,152.1,16.1,152.1z"/>
			</g>
			<g>
				<path class="st10" d="M35.8,150.7l0,2.6c0,1.5-1,2.9-2.9,4c-3.9,2.3-10.2,2.3-14.1,0c-2-1.1-2.9-2.6-2.9-4.1l0-2.6
					c0,1.5,1,3,2.9,4.1c3.9,2.3,10.2,2.3,14.1,0C34.8,153.6,35.8,152.2,35.8,150.7z"/>
			</g>
			<g>
				<path class="st9" d="M35.8,153.3C35.8,153.3,35.8,153.2,35.8,153.3c0-0.9,0-1.7,0-2.6c0,0,0,0,0,0
					C35.8,151.5,35.8,152.5,35.8,153.3z"/>
			</g>
			<g>
				<path class="st10" d="M32.9,146.6c3.9,2.3,3.9,5.9,0,8.2c-3.9,2.3-10.2,2.3-14.1,0c-3.9-2.3-3.9-5.9,0-8.2
					C22.7,144.4,29,144.4,32.9,146.6z"/>
			</g>
			<path class="st11" d="M18.8,148c3.9-2.3,10.2-2.3,14.1,0c1.6,0.9,2.6,2.1,2.9,3.4c0.4-1.7-0.6-3.5-2.9-4.8
				c-3.9-2.3-10.2-2.3-14.1,0c-2.2,1.3-3.2,3.1-2.8,4.8C16.2,150.2,17.2,149,18.8,148z"/>
			<g>
				<path class="st11" d="M38.5,150.7l0,2.6c0,1.9-1.2,3.7-3.7,5.2c-4.9,2.9-13,2.9-17.9,0c-2.5-1.4-3.7-3.3-3.7-5.2l0-2.6
					c0,1.9,1.2,3.8,3.7,5.2c5,2.9,13,2.9,17.9,0C37.3,154.5,38.5,152.6,38.5,150.7z"/>
			</g>
			<g>
				<path class="st9" d="M34.8,145.5c5,2.9,5,7.5,0.1,10.4c-4.9,2.9-13,2.9-17.9,0c-5-2.9-5-7.5-0.1-10.4
					C21.8,142.6,29.8,142.6,34.8,145.5z M18.8,154.8c3.9,2.3,10.2,2.3,14.1,0c3.9-2.3,3.9-5.9,0-8.2c-3.9-2.3-10.2-2.3-14.1,0
					C14.9,148.9,14.9,152.5,18.8,154.8"/>
			</g>
		</g>
	</g>
</g>
<g>
	<g>
		<g class="st8">
			<g>
				<path class="st12" d="M43.1,166c-1,0.6-1.6,1.3-1.8,2c0-0.6,0-1.1,0-1.7c0.2-0.7,0.8-1.4,1.8-2c2.6-1.5,6.8-1.5,9.4,0
					c1.3,0.7,1.9,1.7,2,2.7c0,0.6,0,1.1,0,1.7c0-1-0.7-2-2-2.7C49.9,164.5,45.7,164.5,43.1,166z"/>
			</g>
			<g>
				<path class="st12" d="M41.3,168c-0.1,0.2-0.1,0.5-0.1,0.7l0-1.7c0-0.2,0-0.5,0.1-0.7c0,0.3,0,0.6,0,0.8c0,0.1,0,0.2,0,0.2
					c0,0.1,0,0.2,0,0.3C41.3,167.8,41.3,167.8,41.3,168C41.3,167.9,41.3,168,41.3,168z"/>
			</g>
			<g>
				<path class="st12" d="M54.5,167l0,1.7c0,1-0.6,2-1.9,2.7c-2.6,1.5-6.8,1.5-9.4,0c-1.3-0.8-2-1.7-2-2.7l0-1.7c0,1,0.6,2,2,2.7
					c2.6,1.5,6.8,1.5,9.4,0C53.8,169,54.5,168,54.5,167z"/>
			</g>
			<g>
				<path class="st12" d="M54.5,168.7C54.5,168.7,54.5,168.7,54.5,168.7c0-0.6,0-1.2,0-1.7c0,0,0,0,0,0
					C54.5,167.6,54.5,168.2,54.5,168.7z"/>
			</g>
			<g>
				<path class="st12" d="M52.5,164.3c2.6,1.5,2.6,3.9,0,5.4c-2.6,1.5-6.8,1.5-9.4,0c-2.6-1.5-2.6-3.9,0-5.4
					C45.7,162.8,49.9,162.8,52.5,164.3z"/>
			</g>
			<path class="st13" d="M43.1,165.3c2.6-1.5,6.8-1.5,9.4,0c1.1,0.6,1.7,1.4,1.9,2.3c0.2-1.1-0.4-2.3-1.9-3.2
				c-2.6-1.5-6.8-1.5-9.4,0c-1.5,0.9-2.1,2-1.9,3.2C41.4,166.7,42.1,165.9,43.1,165.3z"/>
			<g>
				<path class="st13" d="M56.3,167.1l0,1.7c0,1.2-0.8,2.5-2.5,3.4c-3.3,1.9-8.6,1.9-11.9,0c-1.7-1-2.5-2.2-2.5-3.5l0-1.7
					c0,1.3,0.8,2.5,2.5,3.5c3.3,1.9,8.6,1.9,11.9,0C55.5,169.5,56.3,168.3,56.3,167.1z"/>
			</g>
			<g>
				<path class="st12" d="M53.8,163.6c3.3,1.9,3.3,5,0,6.9c-3.3,1.9-8.6,1.9-11.9,0c-3.3-1.9-3.3-5,0-6.9
					C45.1,161.7,50.5,161.7,53.8,163.6z M43.2,169.7c2.6,1.5,6.8,1.5,9.4,0c2.6-1.5,2.6-3.9,0-5.4c-2.6-1.5-6.8-1.5-9.4,0
					C40.6,165.8,40.6,168.2,43.2,169.7"/>
			</g>
		</g>
	</g>
	<g>
		<g class="st8">
			<g>
				<path class="st12" d="M43.1,164.1c-1,0.6-1.6,1.3-1.8,2c0-0.6,0-1.1,0-1.7c0.2-0.7,0.8-1.4,1.8-2c2.6-1.5,6.8-1.5,9.4,0
					c1.3,0.7,1.9,1.7,2,2.7c0,0.6,0,1.1,0,1.7c0-1-0.7-2-2-2.7C49.9,162.6,45.7,162.6,43.1,164.1z"/>
			</g>
			<g>
				<path class="st12" d="M41.3,166.1c-0.1,0.2-0.1,0.5-0.1,0.7l0-1.7c0-0.2,0-0.5,0.1-0.7c0,0.3,0,0.6,0,0.8c0,0.1,0,0.2,0,0.2
					c0,0.1,0,0.2,0,0.3C41.3,165.8,41.3,165.9,41.3,166.1C41.3,166,41.3,166,41.3,166.1z"/>
			</g>
			<g>
				<path class="st12" d="M54.5,165.1l0,1.7c0,1-0.6,2-1.9,2.7c-2.6,1.5-6.8,1.5-9.4,0c-1.3-0.8-2-1.7-2-2.7l0-1.7c0,1,0.6,2,2,2.7
					c2.6,1.5,6.8,1.5,9.4,0C53.8,167.1,54.5,166.1,54.5,165.1z"/>
			</g>
			<g>
				<path class="st12" d="M54.5,166.8C54.5,166.8,54.5,166.8,54.5,166.8c0-0.6,0-1.2,0-1.7c0,0,0,0,0,0
					C54.5,165.6,54.5,166.3,54.5,166.8z"/>
			</g>
			<g>
				<path class="st12" d="M52.5,162.4c2.6,1.5,2.6,3.9,0,5.4c-2.6,1.5-6.8,1.5-9.4,0c-2.6-1.5-2.6-3.9,0-5.4
					C45.7,160.9,49.9,160.9,52.5,162.4z"/>
			</g>
			<path class="st13" d="M43.1,163.3c2.6-1.5,6.8-1.5,9.4,0c1.1,0.6,1.7,1.4,1.9,2.3c0.2-1.1-0.4-2.3-1.9-3.2
				c-2.6-1.5-6.8-1.5-9.4,0c-1.5,0.9-2.1,2-1.9,3.2C41.4,164.8,42.1,164,43.1,163.3z"/>
			<g>
				<path class="st13" d="M56.3,165.1l0,1.7c0,1.2-0.8,2.5-2.5,3.4c-3.3,1.9-8.6,1.9-11.9,0c-1.7-1-2.5-2.2-2.5-3.5l0-1.7
					c0,1.3,0.8,2.5,2.5,3.5c3.3,1.9,8.6,1.9,11.9,0C55.5,167.6,56.3,166.4,56.3,165.1z"/>
			</g>
			<g>
				<path class="st12" d="M53.8,161.7c3.3,1.9,3.3,5,0,6.9c-3.3,1.9-8.6,1.9-11.9,0c-3.3-1.9-3.3-5,0-6.9
					C45.1,159.7,50.5,159.7,53.8,161.7z M43.2,167.8c2.6,1.5,6.8,1.5,9.4,0c2.6-1.5,2.6-3.9,0-5.4c-2.6-1.5-6.8-1.5-9.4,0
					C40.6,163.9,40.6,166.3,43.2,167.8"/>
			</g>
		</g>
	</g>
	<g>
		<g class="st8">
			<g>
				<path class="st12" d="M42.8,162.2c-1,0.6-1.6,1.3-1.8,2c0-0.6,0-1.1,0-1.7c0.2-0.7,0.8-1.4,1.8-2c2.6-1.5,6.8-1.5,9.4,0
					c1.3,0.7,1.9,1.7,2,2.7c0,0.6,0,1.1,0,1.7c0-1-0.7-2-2-2.7C49.5,160.7,45.3,160.7,42.8,162.2z"/>
			</g>
			<g>
				<path class="st12" d="M41,164.2c-0.1,0.2-0.1,0.5-0.1,0.7l0-1.7c0-0.2,0-0.5,0.1-0.7c0,0.3,0,0.6,0,0.8c0,0.1,0,0.2,0,0.2
					c0,0.1,0,0.2,0,0.3C41,163.9,41,164,41,164.2C41,164.1,41,164.1,41,164.2z"/>
			</g>
			<g>
				<path class="st12" d="M54.1,163.2l0,1.7c0,1-0.6,2-1.9,2.7c-2.6,1.5-6.8,1.5-9.4,0c-1.3-0.8-2-1.7-2-2.7l0-1.7c0,1,0.6,2,2,2.7
					c2.6,1.5,6.8,1.5,9.4,0C53.4,165.2,54.1,164.2,54.1,163.2z"/>
			</g>
			<g>
				<path class="st12" d="M54.1,164.9C54.1,164.9,54.1,164.9,54.1,164.9c0-0.6,0-1.2,0-1.7c0,0,0,0,0,0
					C54.1,163.7,54.1,164.4,54.1,164.9z"/>
			</g>
			<g>
				<path class="st12" d="M52.1,160.5c2.6,1.5,2.6,3.9,0,5.4c-2.6,1.5-6.8,1.5-9.4,0c-2.6-1.5-2.6-3.9,0-5.4
					C45.3,159,49.5,159,52.1,160.5z"/>
			</g>
			<path class="st13" d="M42.8,161.4c2.6-1.5,6.8-1.5,9.4,0c1.1,0.6,1.7,1.4,1.9,2.3c0.2-1.1-0.4-2.3-1.9-3.2
				c-2.6-1.5-6.8-1.5-9.4,0c-1.5,0.9-2.1,2-1.9,3.2C41.1,162.8,41.7,162,42.8,161.4z"/>
			<g>
				<path class="st13" d="M55.9,163.2l0,1.7c0,1.2-0.8,2.5-2.5,3.4c-3.3,1.9-8.6,1.9-11.9,0c-1.7-1-2.5-2.2-2.5-3.5l0-1.7
					c0,1.3,0.8,2.5,2.5,3.5c3.3,1.9,8.6,1.9,11.9,0C55.1,165.7,55.9,164.5,55.9,163.2z"/>
			</g>
			<g>
				<path class="st12" d="M53.4,159.7c3.3,1.9,3.3,5,0,6.9c-3.3,1.9-8.6,1.9-11.9,0c-3.3-1.9-3.3-5,0-6.9
					C44.8,157.8,50.1,157.8,53.4,159.7z M42.8,165.9c2.6,1.5,6.8,1.5,9.4,0c2.6-1.5,2.6-3.9,0-5.4c-2.6-1.5-6.8-1.5-9.4,0
					C40.2,162,40.2,164.4,42.8,165.9"/>
			</g>
		</g>
	</g>
	<g>
		<g class="st8">
			<g>
				<path class="st12" d="M43.5,160.3c-1,0.6-1.6,1.3-1.8,2c0-0.6,0-1.1,0-1.7c0.2-0.7,0.8-1.4,1.8-2c2.6-1.5,6.8-1.5,9.4,0
					c1.3,0.7,1.9,1.7,2,2.7c0,0.6,0,1.1,0,1.7c0-1-0.7-2-2-2.7C50.3,158.8,46.1,158.8,43.5,160.3z"/>
			</g>
			<g>
				<path class="st12" d="M41.7,162.2c-0.1,0.2-0.1,0.5-0.1,0.7l0-1.7c0-0.2,0-0.5,0.1-0.7c0,0.3,0,0.6,0,0.8c0,0.1,0,0.2,0,0.2
					c0,0.1,0,0.2,0,0.3C41.7,162,41.7,162.1,41.7,162.2C41.7,162.2,41.7,162.2,41.7,162.2z"/>
			</g>
			<g>
				<path class="st12" d="M54.8,161.3l0,1.7c0,1-0.6,2-1.9,2.7c-2.6,1.5-6.8,1.5-9.4,0c-1.3-0.8-2-1.7-2-2.7l0-1.7c0,1,0.6,2,2,2.7
					c2.6,1.5,6.8,1.5,9.4,0C54.2,163.2,54.8,162.3,54.8,161.3z"/>
			</g>
			<g>
				<path class="st12" d="M54.8,163C54.8,163,54.8,163,54.8,163c0-0.6,0-1.2,0-1.7c0,0,0,0,0,0C54.8,161.8,54.8,162.5,54.8,163z"/>
			</g>
			<g>
				<path class="st12" d="M52.9,158.6c2.6,1.5,2.6,3.9,0,5.4c-2.6,1.5-6.8,1.5-9.4,0c-2.6-1.5-2.6-3.9,0-5.4
					C46.1,157.1,50.3,157.1,52.9,158.6z"/>
			</g>
			<path class="st13" d="M43.5,159.5c2.6-1.5,6.8-1.5,9.4,0c1.1,0.6,1.7,1.4,1.9,2.3c0.2-1.1-0.4-2.3-1.9-3.2
				c-2.6-1.5-6.8-1.5-9.4,0c-1.5,0.9-2.1,2-1.9,3.2C41.8,160.9,42.4,160.1,43.5,159.5z"/>
			<g>
				<path class="st13" d="M56.7,161.3l0,1.7c0,1.2-0.8,2.5-2.5,3.4c-3.3,1.9-8.6,1.9-11.9,0c-1.7-1-2.5-2.2-2.5-3.5l0-1.7
					c0,1.3,0.8,2.5,2.5,3.5c3.3,1.9,8.6,1.9,11.9,0C55.8,163.8,56.7,162.5,56.7,161.3z"/>
			</g>
			<g>
				<path class="st12" d="M54.2,157.8c3.3,1.9,3.3,5,0,6.9c-3.3,1.9-8.6,1.9-11.9,0c-3.3-1.9-3.3-5,0-6.9
					C45.5,155.9,50.9,155.9,54.2,157.8z M43.6,164c2.6,1.5,6.8,1.5,9.4,0c2.6-1.5,2.6-3.9,0-5.4c-2.6-1.5-6.8-1.5-9.4,0
					C40.9,160.1,41,162.5,43.6,164"/>
			</g>
		</g>
	</g>
	<g>
		<g class="st8">
			<g>
				<path class="st12" d="M42.8,158.3c-1,0.6-1.6,1.3-1.8,2c0-0.6,0-1.1,0-1.7c0.2-0.7,0.8-1.4,1.8-2c2.6-1.5,6.8-1.5,9.4,0
					c1.3,0.7,1.9,1.7,2,2.7c0,0.6,0,1.1,0,1.7c0-1-0.7-2-2-2.7C49.5,156.8,45.3,156.8,42.8,158.3z"/>
			</g>
			<g>
				<path class="st12" d="M41,160.3c-0.1,0.2-0.1,0.5-0.1,0.7l0-1.7c0-0.2,0-0.5,0.1-0.7c0,0.3,0,0.6,0,0.8c0,0.1,0,0.2,0,0.2
					c0,0.1,0,0.2,0,0.3C41,160.1,41,160.2,41,160.3C41,160.2,41,160.3,41,160.3z"/>
			</g>
			<g>
				<path class="st12" d="M54.1,159.4l0,1.7c0,1-0.6,2-1.9,2.7c-2.6,1.5-6.8,1.5-9.4,0c-1.3-0.8-2-1.7-2-2.7l0-1.7c0,1,0.6,2,2,2.7
					c2.6,1.5,6.8,1.5,9.4,0C53.4,161.3,54.1,160.3,54.1,159.4z"/>
			</g>
			<g>
				<path class="st12" d="M54.1,161.1C54.1,161.1,54.1,161.1,54.1,161.1c0-0.6,0-1.2,0-1.7c0,0,0,0,0,0
					C54.1,159.9,54.1,160.6,54.1,161.1z"/>
			</g>
			<g>
				<path class="st12" d="M52.1,156.6c2.6,1.5,2.6,3.9,0,5.4c-2.6,1.5-6.8,1.5-9.4,0c-2.6-1.5-2.6-3.9,0-5.4
					C45.3,155.1,49.5,155.1,52.1,156.6z"/>
			</g>
			<path class="st13" d="M42.8,157.6c2.6-1.5,6.8-1.5,9.4,0c1.1,0.6,1.7,1.4,1.9,2.3c0.2-1.1-0.4-2.3-1.9-3.2
				c-2.6-1.5-6.8-1.5-9.4,0c-1.5,0.9-2.1,2-1.9,3.2C41.1,159,41.7,158.2,42.8,157.6z"/>
			<g>
				<path class="st13" d="M55.9,159.4l0,1.7c0,1.2-0.8,2.5-2.5,3.4c-3.3,1.9-8.6,1.9-11.9,0c-1.7-1-2.5-2.2-2.5-3.5l0-1.7
					c0,1.3,0.8,2.5,2.5,3.5c3.3,1.9,8.6,1.9,11.9,0C55.1,161.9,55.9,160.6,55.9,159.4z"/>
			</g>
			<g>
				<path class="st12" d="M53.4,155.9c3.3,1.9,3.3,5,0,6.9c-3.3,1.9-8.6,1.9-11.9,0c-3.3-1.9-3.3-5,0-6.9
					C44.8,154,50.1,154,53.4,155.9z M42.8,162.1c2.6,1.5,6.8,1.5,9.4,0c2.6-1.5,2.6-3.9,0-5.4c-2.6-1.5-6.8-1.5-9.4,0
					S40.2,160.6,42.8,162.1"/>
			</g>
		</g>
	</g>
	<g>
		<g class="st8">
			<g>
				<path class="st12" d="M43.2,156.2c-1,0.6-1.6,1.3-1.8,2c0-0.6,0-1.1,0-1.7c0.2-0.7,0.8-1.4,1.8-2c2.6-1.5,6.8-1.5,9.4,0
					c1.3,0.7,1.9,1.7,2,2.7c0,0.6,0,1.1,0,1.7c0-1-0.7-2-2-2.7C50,154.7,45.8,154.7,43.2,156.2z"/>
			</g>
			<g>
				<path class="st12" d="M41.4,158.1c-0.1,0.2-0.1,0.5-0.1,0.7l0-1.7c0-0.2,0-0.5,0.1-0.7c0,0.3,0,0.6,0,0.8c0,0.1,0,0.2,0,0.2
					c0,0.1,0,0.2,0,0.3C41.4,157.9,41.4,158,41.4,158.1C41.4,158.1,41.4,158.1,41.4,158.1z"/>
			</g>
			<g>
				<path class="st12" d="M54.5,157.2l0,1.7c0,1-0.6,2-1.9,2.7c-2.6,1.5-6.8,1.5-9.4,0c-1.3-0.8-2-1.7-2-2.7l0-1.7c0,1,0.6,2,2,2.7
					c2.6,1.5,6.8,1.5,9.4,0C53.9,159.1,54.5,158.2,54.5,157.2z"/>
			</g>
			<g>
				<path class="st12" d="M54.5,158.9C54.5,158.9,54.5,158.9,54.5,158.9c0-0.6,0-1.2,0-1.7c0,0,0,0,0,0
					C54.5,157.7,54.5,158.4,54.5,158.9z"/>
			</g>
			<g>
				<path class="st12" d="M52.6,154.5c2.6,1.5,2.6,3.9,0,5.4s-6.8,1.5-9.4,0c-2.6-1.5-2.6-3.9,0-5.4C45.8,153,50,153,52.6,154.5z"/>
			</g>
			<path class="st13" d="M43.2,155.4c2.6-1.5,6.8-1.5,9.4,0c1.1,0.6,1.7,1.4,1.9,2.3c0.2-1.1-0.4-2.3-1.9-3.2
				c-2.6-1.5-6.8-1.5-9.4,0c-1.5,0.9-2.1,2-1.9,3.2C41.5,156.8,42.1,156,43.2,155.4z"/>
			<g>
				<path class="st13" d="M56.3,157.2l0,1.7c0,1.2-0.8,2.5-2.5,3.4c-3.3,1.9-8.6,1.9-11.9,0c-1.7-1-2.5-2.2-2.5-3.5l0-1.7
					c0,1.3,0.8,2.5,2.5,3.5c3.3,1.9,8.6,1.9,11.9,0C55.5,159.7,56.3,158.4,56.3,157.2z"/>
			</g>
			<g>
				<path class="st12" d="M53.8,153.7c3.3,1.9,3.3,5,0,6.9c-3.3,1.9-8.6,1.9-11.9,0c-3.3-1.9-3.3-5,0-6.9
					C45.2,151.8,50.5,151.8,53.8,153.7z M43.2,159.9c2.6,1.5,6.8,1.5,9.4,0s2.6-3.9,0-5.4c-2.6-1.5-6.8-1.5-9.4,0
					C40.6,156,40.6,158.4,43.2,159.9"/>
			</g>
		</g>
	</g>
	<g>
		<g class="st8">
			<g>
				<path class="st12" d="M42.3,154c-1,0.6-1.6,1.3-1.8,2c0-0.6,0-1.1,0-1.7c0.2-0.7,0.8-1.4,1.8-2c2.6-1.5,6.8-1.5,9.4,0
					c1.3,0.7,1.9,1.7,2,2.7c0,0.6,0,1.1,0,1.7c0-1-0.7-2-2-2.7C49.1,152.5,44.9,152.5,42.3,154z"/>
			</g>
			<g>
				<path class="st12" d="M40.5,156c-0.1,0.2-0.1,0.5-0.1,0.7l0-1.7c0-0.2,0-0.5,0.1-0.7c0,0.3,0,0.6,0,0.8c0,0.1,0,0.2,0,0.2
					c0,0.1,0,0.2,0,0.3C40.5,155.8,40.5,155.9,40.5,156C40.5,155.9,40.5,156,40.5,156z"/>
			</g>
			<g>
				<path class="st12" d="M53.7,155.1l0,1.7c0,1-0.6,2-1.9,2.7c-2.6,1.5-6.8,1.5-9.4,0c-1.3-0.8-2-1.7-2-2.7l0-1.7c0,1,0.6,2,2,2.7
					c2.6,1.5,6.8,1.5,9.4,0C53,157,53.7,156,53.7,155.1z"/>
			</g>
			<g>
				<path class="st12" d="M53.7,156.8C53.7,156.8,53.7,156.8,53.7,156.8c0-0.6,0-1.2,0-1.7c0,0,0,0,0,0
					C53.7,155.6,53.7,156.3,53.7,156.8z"/>
			</g>
			<g>
				<path class="st12" d="M51.7,152.3c2.6,1.5,2.6,3.9,0,5.4c-2.6,1.5-6.8,1.5-9.4,0c-2.6-1.5-2.6-3.9,0-5.4
					C44.9,150.8,49.1,150.8,51.7,152.3z"/>
			</g>
			<path class="st13" d="M42.3,153.3c2.6-1.5,6.8-1.5,9.4,0c1.1,0.6,1.7,1.4,1.9,2.3c0.2-1.1-0.4-2.3-1.9-3.2
				c-2.6-1.5-6.8-1.5-9.4,0c-1.5,0.9-2.1,2-1.9,3.2C40.6,154.7,41.3,153.9,42.3,153.3z"/>
			<g>
				<path class="st13" d="M55.5,155.1l0,1.7c0,1.2-0.8,2.5-2.5,3.4c-3.3,1.9-8.6,1.9-11.9,0c-1.7-1-2.5-2.2-2.5-3.5l0-1.7
					c0,1.3,0.8,2.5,2.5,3.5c3.3,1.9,8.6,1.9,11.9,0C54.7,157.6,55.5,156.3,55.5,155.1z"/>
			</g>
			<g>
				<path class="st12" d="M53,151.6c3.3,1.9,3.3,5,0,6.9c-3.3,1.9-8.6,1.9-11.9,0c-3.3-1.9-3.3-5,0-6.9
					C44.3,149.7,49.7,149.7,53,151.6z M42.4,157.8c2.6,1.5,6.8,1.5,9.4,0c2.6-1.5,2.6-3.9,0-5.4c-2.6-1.5-6.8-1.5-9.4,0
					C39.8,153.8,39.8,156.3,42.4,157.8"/>
			</g>
		</g>
	</g>
</g>
<path class="st14" d="M79.3,149c-2.9-1.5-7.6-1.5-10.5,0c-2.9,1.5-2.9,4,0,5.5c2.9,1.5,7.6,1.5,10.5,0C82.2,153,82.2,150.5,79.3,149
	z M68.2,151.2L68.2,151.2c0,0,0-0.1,0-0.1C68.2,151.2,68.2,151.2,68.2,151.2z"/>
<path class="st14" d="M91.3,155.1c-2.9-1.5-7.6-1.5-10.5,0c-2.9,1.5-2.9,4,0,5.5c2.9,1.5,7.6,1.5,10.5,0
	C94.2,159,94.2,156.6,91.3,155.1z M80.3,157.3L80.3,157.3c0,0,0-0.1,0-0.1C80.3,157.3,80.3,157.3,80.3,157.3z"/>
<g>
	<g>
		<g class="st8">
			<g>
				<path class="st15" d="M71.3,149.7c-0.7,0.4-1.2,1-1.4,1.5c0-0.4,0-0.9,0-1.3c0.2-0.6,0.6-1.1,1.4-1.5c2-1.1,5.2-1.1,7.2,0
					c1,0.6,1.5,1.3,1.5,2.1c0,0.4,0,0.9,0,1.3c0-0.8-0.5-1.5-1.5-2.1C76.5,148.6,73.3,148.6,71.3,149.7z"/>
			</g>
			<g>
				<path class="st15" d="M69.9,151.2c-0.1,0.2-0.1,0.4-0.1,0.5l0-1.3c0-0.2,0-0.4,0.1-0.5c0,0.2,0,0.4,0,0.7c0,0.1,0,0.1,0,0.2
					c0,0.1,0,0.2,0,0.2C69.9,151,69.9,151.1,69.9,151.2C69.9,151.2,69.9,151.2,69.9,151.2z"/>
			</g>
			<g>
				<path class="st15" d="M80,150.5l0,1.3c0,0.7-0.5,1.5-1.5,2.1c-2,1.1-5.2,1.1-7.2,0c-1-0.6-1.5-1.3-1.5-2.1l0-1.3
					c0,0.8,0.5,1.5,1.5,2.1c2,1.1,5.2,1.1,7.2,0C79.5,152,80,151.2,80,150.5z"/>
			</g>
			<g>
				<path class="st15" d="M80,151.8C80,151.8,80,151.8,80,151.8c0-0.4,0-0.9,0-1.3c0,0,0,0,0,0C80,150.9,80,151.4,80,151.8z"/>
			</g>
			<g>
				<path class="st15" d="M78.5,148.4c2,1.1,2,3,0,4.2c-2,1.1-5.2,1.1-7.2,0c-2-1.1-2-3,0-4.2C73.3,147.3,76.5,147.3,78.5,148.4z"/>
			</g>
			<path class="st16" d="M71.3,149.1c2-1.1,5.2-1.1,7.2,0c0.8,0.5,1.3,1.1,1.5,1.7c0.2-0.9-0.3-1.8-1.5-2.5c-2-1.1-5.2-1.1-7.2,0
				c-1.1,0.7-1.6,1.6-1.4,2.4C70,150.2,70.5,149.6,71.3,149.1z"/>
			<g>
				<path class="st16" d="M81.4,150.5l0,1.3c0,1-0.6,1.9-1.9,2.6c-2.5,1.5-6.6,1.5-9.1,0c-1.3-0.7-1.9-1.7-1.9-2.7l0-1.3
					c0,1,0.6,1.9,1.9,2.7c2.5,1.5,6.6,1.5,9.1,0C80.7,152.4,81.3,151.5,81.4,150.5z"/>
			</g>
			<g>
				<path class="st15" d="M79.4,147.8c2.5,1.5,2.5,3.8,0,5.3c-2.5,1.5-6.6,1.5-9.1,0c-2.5-1.5-2.5-3.8,0-5.3
					C72.8,146.4,76.9,146.4,79.4,147.8z M71.3,152.6c2,1.1,5.2,1.1,7.2,0c2-1.1,2-3,0-4.2c-2-1.1-5.2-1.1-7.2,0
					C69.3,149.5,69.3,151.4,71.3,152.6"/>
			</g>
		</g>
	</g>
	<g>
		<g class="st8">
			<g>
				<path class="st15" d="M71.8,148.3c-0.7,0.4-1.2,1-1.4,1.5c0-0.4,0-0.9,0-1.3c0.2-0.6,0.6-1.1,1.4-1.5c2-1.1,5.2-1.1,7.2,0
					c1,0.6,1.5,1.3,1.5,2.1c0,0.4,0,0.9,0,1.3c0-0.8-0.5-1.5-1.5-2.1C77,147.2,73.8,147.2,71.8,148.3z"/>
			</g>
			<g>
				<path class="st15" d="M70.4,149.9c-0.1,0.2-0.1,0.4-0.1,0.5l0-1.3c0-0.2,0-0.4,0.1-0.5c0,0.2,0,0.4,0,0.7c0,0.1,0,0.1,0,0.2
					c0,0.1,0,0.2,0,0.2C70.4,149.7,70.4,149.7,70.4,149.9C70.4,149.8,70.4,149.8,70.4,149.9z"/>
			</g>
			<g>
				<path class="st15" d="M80.5,149.1l0,1.3c0,0.7-0.5,1.5-1.5,2.1c-2,1.1-5.2,1.1-7.2,0c-1-0.6-1.5-1.3-1.5-2.1l0-1.3
					c0,0.8,0.5,1.5,1.5,2.1c2,1.1,5.2,1.1,7.2,0C80,150.6,80.5,149.9,80.5,149.1z"/>
			</g>
			<g>
				<path class="st15" d="M80.5,150.4C80.5,150.4,80.5,150.4,80.5,150.4c0-0.4,0-0.9,0-1.3c0,0,0,0,0,0
					C80.5,149.5,80.5,150.1,80.5,150.4z"/>
			</g>
			<g>
				<path class="st15" d="M79,147c2,1.1,2,3,0,4.2c-2,1.1-5.2,1.1-7.2,0c-2-1.1-2-3,0-4.2C73.8,145.9,77,145.9,79,147z"/>
			</g>
			<path class="st16" d="M71.8,147.8c2-1.1,5.2-1.1,7.2,0c0.8,0.5,1.3,1.1,1.5,1.7c0.2-0.9-0.3-1.8-1.5-2.5c-2-1.1-5.2-1.1-7.2,0
				c-1.1,0.7-1.6,1.6-1.4,2.4C70.5,148.9,71,148.3,71.8,147.8z"/>
			<g>
				<path class="st16" d="M81.9,149.1l0,1.3c0,1-0.6,1.9-1.9,2.6c-2.5,1.5-6.6,1.5-9.1,0c-1.3-0.7-1.9-1.7-1.9-2.7l0-1.3
					c0,1,0.6,1.9,1.9,2.7c2.5,1.5,6.6,1.5,9.1,0C81.3,151,81.9,150.1,81.9,149.1z"/>
			</g>
			<g>
				<path class="st15" d="M80,146.5c2.5,1.5,2.5,3.8,0,5.3c-2.5,1.5-6.6,1.5-9.1,0c-2.5-1.5-2.5-3.8,0-5.3
					C73.4,145,77.5,145,80,146.5z M71.9,151.2c2,1.1,5.2,1.1,7.2,0c2-1.1,2-3,0-4.2c-2-1.1-5.2-1.1-7.2,0
					C69.9,148.2,69.9,150.1,71.9,151.2"/>
			</g>
		</g>
	</g>
	<g>
		<g class="st8">
			<g>
				<path class="st15" d="M71,146.8c-0.7,0.4-1.2,1-1.4,1.5c0-0.4,0-0.9,0-1.3c0.2-0.6,0.6-1.1,1.4-1.5c2-1.1,5.2-1.1,7.2,0
					c1,0.6,1.5,1.3,1.5,2.1c0,0.4,0,0.9,0,1.3c0-0.8-0.5-1.5-1.5-2.1C76.2,145.6,73,145.6,71,146.8z"/>
			</g>
			<g>
				<path class="st15" d="M69.6,148.3c-0.1,0.2-0.1,0.4-0.1,0.5l0-1.3c0-0.2,0-0.4,0.1-0.5c0,0.2,0,0.4,0,0.7c0,0.1,0,0.1,0,0.2
					c0,0.1,0,0.2,0,0.2C69.6,148.1,69.6,148.2,69.6,148.3C69.6,148.2,69.6,148.3,69.6,148.3z"/>
			</g>
			<g>
				<path class="st15" d="M79.7,147.6l0,1.3c0,0.7-0.5,1.5-1.5,2.1c-2,1.1-5.2,1.1-7.2,0c-1-0.6-1.5-1.3-1.5-2.1l0-1.3
					c0,0.8,0.5,1.5,1.5,2.1c2,1.1,5.2,1.1,7.2,0C79.2,149,79.7,148.3,79.7,147.6z"/>
			</g>
			<g>
				<path class="st15" d="M79.7,148.9C79.7,148.8,79.7,148.8,79.7,148.9c0-0.4,0-0.9,0-1.3c0,0,0,0,0,0
					C79.7,147.9,79.7,148.5,79.7,148.9z"/>
			</g>
			<g>
				<path class="st15" d="M78.2,145.5c2,1.1,2,3,0,4.2c-2,1.1-5.2,1.1-7.2,0c-2-1.1-2-3,0-4.2C73,144.3,76.2,144.3,78.2,145.5z"/>
			</g>
			<path class="st16" d="M71,146.2c2-1.1,5.2-1.1,7.2,0c0.8,0.5,1.3,1.1,1.5,1.7c0.2-0.9-0.3-1.8-1.5-2.5c-2-1.1-5.2-1.1-7.2,0
				c-1.1,0.7-1.6,1.6-1.4,2.4C69.7,147.3,70.2,146.7,71,146.2z"/>
			<g>
				<path class="st16" d="M81.1,147.6l0,1.3c0,1-0.6,1.9-1.9,2.6c-2.5,1.5-6.6,1.5-9.1,0c-1.3-0.7-1.9-1.7-1.9-2.7l0-1.3
					c0,1,0.6,1.9,1.9,2.7c2.5,1.5,6.6,1.5,9.1,0C80.4,149.5,81.1,148.5,81.1,147.6z"/>
			</g>
			<g>
				<path class="st15" d="M79.2,144.9c2.5,1.5,2.5,3.8,0,5.3c-2.5,1.5-6.6,1.5-9.1,0c-2.5-1.5-2.5-3.8,0-5.3
					C72.5,143.4,76.6,143.4,79.2,144.9z M71,149.6c2,1.1,5.2,1.1,7.2,0c2-1.1,2-3,0-4.2c-2-1.1-5.2-1.1-7.2,0
					C69,146.6,69,148.5,71,149.6"/>
			</g>
		</g>
	</g>
	<g>
		<g class="st8">
			<g>
				<path class="st15" d="M71,145.3c-0.7,0.4-1.2,1-1.4,1.5c0-0.4,0-0.9,0-1.3c0.2-0.6,0.6-1.1,1.4-1.5c2-1.1,5.2-1.1,7.2,0
					c1,0.6,1.5,1.3,1.5,2.1c0,0.4,0,0.9,0,1.3c0-0.8-0.5-1.5-1.5-2.1C76.2,144.1,73,144.1,71,145.3z"/>
			</g>
			<g>
				<path class="st15" d="M69.6,146.8c-0.1,0.2-0.1,0.4-0.1,0.5l0-1.3c0-0.2,0-0.4,0.1-0.5c0,0.2,0,0.4,0,0.7c0,0.1,0,0.1,0,0.2
					c0,0.1,0,0.2,0,0.2C69.6,146.6,69.6,146.7,69.6,146.8C69.6,146.8,69.7,146.8,69.6,146.8z"/>
			</g>
			<g>
				<path class="st15" d="M79.7,146.1l0,1.3c0,0.7-0.5,1.5-1.5,2.1c-2,1.1-5.2,1.1-7.2,0c-1-0.6-1.5-1.3-1.5-2.1l0-1.3
					c0,0.8,0.5,1.5,1.5,2.1c2,1.1,5.2,1.1,7.2,0C79.2,147.6,79.7,146.8,79.7,146.1z"/>
			</g>
			<g>
				<path class="st15" d="M79.7,147.4C79.7,147.4,79.7,147.4,79.7,147.4c0-0.4,0-0.9,0-1.3c0,0,0,0,0,0
					C79.7,146.5,79.7,147,79.7,147.4z"/>
			</g>
			<g>
				<path class="st15" d="M78.2,144c2,1.1,2,3,0,4.2c-2,1.1-5.2,1.1-7.2,0c-2-1.1-2-3,0-4.2C73,142.8,76.2,142.8,78.2,144z"/>
			</g>
			<path class="st16" d="M71,144.7c2-1.1,5.2-1.1,7.2,0c0.8,0.5,1.3,1.1,1.5,1.7c0.2-0.9-0.3-1.8-1.5-2.5c-2-1.1-5.2-1.1-7.2,0
				c-1.1,0.7-1.6,1.6-1.4,2.4C69.7,145.8,70.2,145.2,71,144.7z"/>
			<g>
				<path class="st16" d="M81.1,146.1l0,1.3c0,1-0.6,1.9-1.9,2.6c-2.5,1.5-6.6,1.5-9.1,0c-1.3-0.7-1.9-1.7-1.9-2.7l0-1.3
					c0,1,0.6,1.9,1.9,2.7c2.5,1.5,6.6,1.5,9.1,0C80.5,148,81.1,147,81.1,146.1z"/>
			</g>
			<g>
				<path class="st15" d="M79.2,143.4c2.5,1.5,2.5,3.8,0,5.3c-2.5,1.5-6.6,1.5-9.1,0c-2.5-1.5-2.5-3.8,0-5.3
					C72.6,142,76.7,142,79.2,143.4z M71.1,148.1c2,1.1,5.2,1.1,7.2,0c2-1.1,2-3,0-4.2c-2-1.1-5.2-1.1-7.2,0
					C69.1,145.1,69.1,147,71.1,148.1"/>
			</g>
		</g>
	</g>
	<g>
		<g class="st8">
			<g>
				<path class="st15" d="M71,143.8c-0.7,0.4-1.2,1-1.4,1.5c0-0.4,0-0.9,0-1.3c0.2-0.6,0.6-1.1,1.4-1.5c2-1.1,5.2-1.1,7.2,0
					c1,0.6,1.5,1.3,1.5,2.1c0,0.4,0,0.9,0,1.3c0-0.8-0.5-1.5-1.5-2.1C76.2,142.7,73,142.7,71,143.8z"/>
			</g>
			<g>
				<path class="st15" d="M69.6,145.3c-0.1,0.2-0.1,0.4-0.1,0.5l0-1.3c0-0.2,0-0.4,0.1-0.5c0,0.2,0,0.4,0,0.7c0,0.1,0,0.1,0,0.2
					c0,0.1,0,0.2,0,0.2C69.6,145.2,69.6,145.2,69.6,145.3C69.6,145.3,69.6,145.3,69.6,145.3z"/>
			</g>
			<g>
				<path class="st15" d="M79.7,144.6l0,1.3c0,0.7-0.5,1.5-1.5,2.1c-2,1.1-5.2,1.1-7.2,0c-1-0.6-1.5-1.3-1.5-2.1l0-1.3
					c0,0.8,0.5,1.5,1.5,2.1c2,1.1,5.2,1.1,7.2,0C79.2,146.1,79.7,145.4,79.7,144.6z"/>
			</g>
			<g>
				<path class="st15" d="M79.7,145.9C79.7,145.9,79.7,145.9,79.7,145.9c0-0.4,0-0.9,0-1.3c0,0,0,0,0,0
					C79.7,145,79.7,145.5,79.7,145.9z"/>
			</g>
			<g>
				<path class="st15" d="M78.2,142.5c2,1.1,2,3,0,4.2c-2,1.1-5.2,1.1-7.2,0c-2-1.1-2-3,0-4.2C73,141.4,76.2,141.4,78.2,142.5z"/>
			</g>
			<path class="st16" d="M71,143.2c2-1.1,5.2-1.1,7.2,0c0.8,0.5,1.3,1.1,1.5,1.7c0.2-0.9-0.3-1.8-1.5-2.5c-2-1.1-5.2-1.1-7.2,0
				c-1.1,0.7-1.6,1.6-1.4,2.4C69.7,144.3,70.2,143.7,71,143.2z"/>
			<g>
				<path class="st16" d="M81.1,144.6l0,1.3c0,1-0.6,1.9-1.9,2.6c-2.5,1.5-6.6,1.5-9.1,0c-1.3-0.7-1.9-1.7-1.9-2.7l0-1.3
					c0,1,0.6,1.9,1.9,2.7c2.5,1.5,6.6,1.5,9.1,0C80.4,146.5,81.1,145.6,81.1,144.6z"/>
			</g>
			<g>
				<path class="st15" d="M79.2,141.9c2.5,1.5,2.5,3.8,0,5.3c-2.5,1.5-6.6,1.5-9.1,0c-2.5-1.5-2.5-3.8,0-5.3
					C72.5,140.5,76.6,140.5,79.2,141.9z M71,146.7c2,1.1,5.2,1.1,7.2,0c2-1.1,2-3,0-4.2c-2-1.1-5.2-1.1-7.2,0
					C69,143.7,69,145.5,71,146.7"/>
			</g>
		</g>
	</g>
	<g>
		<g class="st8">
			<g>
				<path class="st15" d="M71.3,142.2c-0.7,0.4-1.2,1-1.4,1.5c0-0.4,0-0.9,0-1.3c0.2-0.6,0.6-1.1,1.4-1.5c2-1.1,5.2-1.1,7.2,0
					c1,0.6,1.5,1.3,1.5,2.1c0,0.4,0,0.9,0,1.3c0-0.8-0.5-1.5-1.5-2.1C76.5,141,73.3,141,71.3,142.2z"/>
			</g>
			<g>
				<path class="st15" d="M69.9,143.7c-0.1,0.2-0.1,0.4-0.1,0.5l0-1.3c0-0.2,0-0.4,0.1-0.5c0,0.2,0,0.4,0,0.7c0,0.1,0,0.1,0,0.2
					c0,0.1,0,0.2,0,0.2C69.9,143.5,69.9,143.5,69.9,143.7C69.9,143.6,69.9,143.6,69.9,143.7z"/>
			</g>
			<g>
				<path class="st15" d="M80,142.9l0,1.3c0,0.7-0.5,1.5-1.5,2.1c-2,1.1-5.2,1.1-7.2,0c-1-0.6-1.5-1.3-1.5-2.1l0-1.3
					c0,0.8,0.5,1.5,1.5,2.1c2,1.1,5.2,1.1,7.2,0C79.5,144.4,80,143.7,80,142.9z"/>
			</g>
			<g>
				<path class="st15" d="M80,144.2C80,144.2,80,144.2,80,144.2c0-0.4,0-0.9,0-1.3c0,0,0,0,0,0C80,143.3,80,143.9,80,144.2z"/>
			</g>
			<g>
				<path class="st15" d="M78.5,140.9c2,1.1,2,3,0,4.2c-2,1.1-5.2,1.1-7.2,0c-2-1.1-2-3,0-4.2C73.3,139.7,76.5,139.7,78.5,140.9z"/>
			</g>
			<path class="st16" d="M71.3,141.6c2-1.1,5.2-1.1,7.2,0c0.8,0.5,1.3,1.1,1.5,1.7c0.2-0.9-0.3-1.8-1.5-2.5c-2-1.1-5.2-1.1-7.2,0
				c-1.1,0.7-1.6,1.6-1.4,2.4C70,142.7,70.5,142.1,71.3,141.6z"/>
			<g>
				<path class="st16" d="M81.4,142.9l0,1.3c0,1-0.6,1.9-1.9,2.6c-2.5,1.5-6.6,1.5-9.1,0c-1.3-0.7-1.9-1.7-1.9-2.7l0-1.3
					c0,1,0.6,1.9,1.9,2.7c2.5,1.5,6.6,1.5,9.1,0C80.8,144.9,81.4,143.9,81.4,142.9z"/>
			</g>
			<g>
				<path class="st15" d="M79.5,140.3c2.5,1.5,2.5,3.8,0,5.3c-2.5,1.5-6.6,1.5-9.1,0c-2.5-1.5-2.5-3.8,0-5.3
					C72.9,138.8,77,138.8,79.5,140.3z M71.4,145c2,1.1,5.2,1.1,7.2,0c2-1.1,2-3,0-4.2c-2-1.1-5.2-1.1-7.2,0
					C69.3,142,69.4,143.9,71.4,145"/>
			</g>
		</g>
	</g>
	<g>
		<g class="st8">
			<g>
				<path class="st15" d="M71.9,140.3c-0.7,0.4-1.2,1-1.4,1.5c0-0.4,0-0.9,0-1.3c0.2-0.6,0.6-1.1,1.4-1.5c2-1.1,5.2-1.1,7.2,0
					c1,0.6,1.5,1.3,1.5,2.1c0,0.4,0,0.9,0,1.3c0-0.8-0.5-1.5-1.5-2.1C77.1,139.2,73.9,139.2,71.9,140.3z"/>
			</g>
			<g>
				<path class="st15" d="M70.5,141.8c-0.1,0.2-0.1,0.4-0.1,0.5l0-1.3c0-0.2,0-0.4,0.1-0.5c0,0.2,0,0.4,0,0.7c0,0.1,0,0.1,0,0.2
					c0,0.1,0,0.2,0,0.2C70.5,141.7,70.5,141.7,70.5,141.8C70.5,141.8,70.5,141.8,70.5,141.8z"/>
			</g>
			<g>
				<path class="st15" d="M80.6,141.1l0,1.3c0,0.7-0.5,1.5-1.5,2.1c-2,1.1-5.2,1.1-7.2,0c-1-0.6-1.5-1.3-1.5-2.1l0-1.3
					c0,0.8,0.5,1.5,1.5,2.1c2,1.1,5.2,1.1,7.2,0C80.1,142.6,80.6,141.9,80.6,141.1z"/>
			</g>
			<g>
				<path class="st15" d="M80.6,142.4C80.6,142.4,80.6,142.4,80.6,142.4c0-0.4,0-0.9,0-1.3c0,0,0,0,0,0
					C80.6,141.5,80.6,142,80.6,142.4z"/>
			</g>
			<g>
				<path class="st15" d="M79.1,139c2,1.1,2,3,0,4.2c-2,1.1-5.2,1.1-7.2,0c-2-1.1-2-3,0-4.2C73.9,137.9,77.1,137.9,79.1,139z"/>
			</g>
			<path class="st16" d="M71.9,139.8c2-1.1,5.2-1.1,7.2,0c0.8,0.5,1.3,1.1,1.5,1.7c0.2-0.9-0.3-1.8-1.5-2.5c-2-1.1-5.2-1.1-7.2,0
				c-1.1,0.7-1.6,1.6-1.4,2.4C70.6,140.8,71.1,140.2,71.9,139.8z"/>
			<g>
				<path class="st16" d="M82,141.1l0,1.3c0,1-0.6,1.9-1.9,2.6c-2.5,1.5-6.6,1.5-9.1,0c-1.3-0.7-1.9-1.7-1.9-2.7l0-1.3
					c0,1,0.6,1.9,1.9,2.7c2.5,1.5,6.6,1.5,9.1,0C81.4,143,82,142.1,82,141.1z"/>
			</g>
			<g>
				<path class="st15" d="M80.1,138.5c2.5,1.5,2.5,3.8,0,5.3c-2.5,1.5-6.6,1.5-9.1,0c-2.5-1.5-2.5-3.8,0-5.3
					C73.5,137,77.6,137,80.1,138.5z M71.9,143.2c2,1.1,5.2,1.1,7.2,0c2-1.1,2-3,0-4.2c-2-1.1-5.2-1.1-7.2,0
					C69.9,140.2,70,142,71.9,143.2"/>
			</g>
		</g>
	</g>
	<g>
		<g class="st8">
			<g>
				<path class="st15" d="M71,138.9c-0.7,0.4-1.2,1-1.4,1.5c0-0.4,0-0.9,0-1.3c0.2-0.6,0.6-1.1,1.4-1.5c2-1.1,5.2-1.1,7.2,0
					c1,0.6,1.5,1.3,1.5,2.1c0,0.4,0,0.9,0,1.3c0-0.8-0.5-1.5-1.5-2.1C76.2,137.7,73,137.7,71,138.9z"/>
			</g>
			<g>
				<path class="st15" d="M69.6,140.4c-0.1,0.2-0.1,0.4-0.1,0.5l0-1.3c0-0.2,0-0.4,0.1-0.5c0,0.2,0,0.4,0,0.7c0,0.1,0,0.1,0,0.2
					c0,0.1,0,0.2,0,0.2C69.6,140.2,69.6,140.3,69.6,140.4C69.6,140.3,69.6,140.4,69.6,140.4z"/>
			</g>
			<g>
				<path class="st15" d="M79.7,139.7l0,1.3c0,0.7-0.5,1.5-1.5,2.1c-2,1.1-5.2,1.1-7.2,0c-1-0.6-1.5-1.3-1.5-2.1l0-1.3
					c0,0.8,0.5,1.5,1.5,2.1c2,1.1,5.2,1.1,7.2,0C79.2,141.2,79.7,140.4,79.7,139.7z"/>
			</g>
			<g>
				<path class="st15" d="M79.7,141C79.7,141,79.7,140.9,79.7,141c0-0.4,0-0.9,0-1.3c0,0,0,0,0,0C79.7,140,79.7,140.6,79.7,141z"/>
			</g>
			<g>
				<path class="st15" d="M78.2,137.6c2,1.1,2,3,0,4.2c-2,1.1-5.2,1.1-7.2,0c-2-1.1-2-3,0-4.2C73,136.4,76.2,136.4,78.2,137.6z"/>
			</g>
			<path class="st16" d="M71,138.3c2-1.1,5.2-1.1,7.2,0c0.8,0.5,1.3,1.1,1.5,1.7c0.2-0.9-0.3-1.8-1.5-2.5c-2-1.1-5.2-1.1-7.2,0
				c-1.1,0.7-1.6,1.6-1.4,2.4C69.7,139.4,70.2,138.8,71,138.3z"/>
			<g>
				<path class="st16" d="M81.1,139.7l0,1.3c0,1-0.6,1.9-1.9,2.6c-2.5,1.5-6.6,1.5-9.1,0c-1.3-0.7-1.9-1.7-1.9-2.7l0-1.3
					c0,1,0.6,1.9,1.9,2.7c2.5,1.5,6.6,1.5,9.1,0C80.4,141.6,81.1,140.6,81.1,139.7z"/>
			</g>
			<g>
				<path class="st15" d="M79.2,137c2.5,1.5,2.5,3.8,0,5.3c-2.5,1.5-6.6,1.5-9.1,0c-2.5-1.5-2.5-3.8,0-5.3
					C72.5,135.5,76.6,135.5,79.2,137z M71,141.7c2,1.1,5.2,1.1,7.2,0c2-1.1,2-3,0-4.2c-2-1.1-5.2-1.1-7.2,0
					C69,138.7,69,140.6,71,141.7"/>
			</g>
		</g>
	</g>
	<g>
		<g class="st8">
			<g>
				<path class="st15" d="M71.4,137.4c-0.7,0.4-1.2,1-1.4,1.5c0-0.4,0-0.9,0-1.3c0.2-0.6,0.6-1.1,1.4-1.5c2-1.1,5.2-1.1,7.2,0
					c1,0.6,1.5,1.3,1.5,2.1c0,0.4,0,0.9,0,1.3c0-0.8-0.5-1.5-1.5-2.1C76.6,136.2,73.3,136.2,71.4,137.4z"/>
			</g>
			<g>
				<path class="st15" d="M70,138.9c-0.1,0.2-0.1,0.4-0.1,0.5l0-1.3c0-0.2,0-0.4,0.1-0.5c0,0.2,0,0.4,0,0.7c0,0.1,0,0.1,0,0.2
					c0,0.1,0,0.2,0,0.2C70,138.7,70,138.8,70,138.9C70,138.9,70,138.9,70,138.9z"/>
			</g>
			<g>
				<path class="st15" d="M80.1,138.2l0,1.3c0,0.7-0.5,1.5-1.5,2.1c-2,1.1-5.2,1.1-7.2,0c-1-0.6-1.5-1.3-1.5-2.1l0-1.3
					c0,0.8,0.5,1.5,1.5,2.1c2,1.1,5.2,1.1,7.2,0C79.6,139.7,80.1,138.9,80.1,138.2z"/>
			</g>
			<g>
				<path class="st15" d="M80.1,139.5C80.1,139.5,80.1,139.5,80.1,139.5c0-0.4,0-0.9,0-1.3c0,0,0,0,0,0
					C80.1,138.6,80.1,139.1,80.1,139.5z"/>
			</g>
			<g>
				<path class="st15" d="M78.6,136.1c2,1.1,2,3,0,4.2c-2,1.1-5.2,1.1-7.2,0c-2-1.1-2-3,0-4.2C73.3,134.9,76.6,134.9,78.6,136.1z"/>
			</g>
			<path class="st16" d="M71.4,136.8c2-1.1,5.2-1.1,7.2,0c0.8,0.5,1.3,1.1,1.5,1.7c0.2-0.9-0.3-1.8-1.5-2.5c-2-1.1-5.2-1.1-7.2,0
				c-1.1,0.7-1.6,1.6-1.4,2.4C70.1,137.9,70.5,137.3,71.4,136.8z"/>
			<g>
				<path class="st16" d="M81.4,138.2l0,1.3c0,1-0.6,1.9-1.9,2.6c-2.5,1.5-6.6,1.5-9.1,0c-1.3-0.7-1.9-1.7-1.9-2.7l0-1.3
					c0,1,0.6,1.9,1.9,2.7c2.5,1.5,6.6,1.5,9.1,0C80.8,140.1,81.4,139.1,81.4,138.2z"/>
			</g>
			<g>
				<path class="st15" d="M79.5,135.5c2.5,1.5,2.5,3.8,0,5.3c-2.5,1.5-6.6,1.5-9.1,0c-2.5-1.5-2.5-3.8,0-5.3
					C72.9,134.1,77,134.1,79.5,135.5z M71.4,140.3c2,1.1,5.2,1.1,7.2,0c2-1.1,2-3,0-4.2c-2-1.1-5.2-1.1-7.2,0
					C69.4,137.2,69.4,139.1,71.4,140.3"/>
			</g>
		</g>
	</g>
</g>
<path class="st0" d="M74.3,160.7c-3.8-2-10-2-13.7,0c-3.8,2-3.8,5.2,0,7.2c3.8,2,10,2,13.7,0C78.1,165.9,78.1,162.7,74.3,160.7z
	 M59.9,163.7L59.9,163.7c0,0,0-0.1,0-0.1C59.9,163.6,59.9,163.6,59.9,163.7z"/>
<g>
	<g>
		<g class="st8">
			<g>
				<path class="st12" d="M64.2,161.6c-1,0.6-1.6,1.3-1.8,2c0-0.6,0-1.1,0-1.7c0.2-0.7,0.8-1.4,1.8-2c2.6-1.5,6.8-1.5,9.4,0
					c1.3,0.7,1.9,1.7,2,2.7c0,0.6,0,1.1,0,1.7c0-1-0.7-2-2-2.7C71,160.1,66.8,160.1,64.2,161.6z"/>
			</g>
			<g>
				<path class="st12" d="M62.4,163.5c-0.1,0.2-0.1,0.5-0.1,0.7l0-1.7c0-0.2,0-0.5,0.1-0.7c0,0.3,0,0.6,0,0.8c0,0.1,0,0.2,0,0.2
					c0,0.1,0,0.2,0,0.3C62.4,163.3,62.4,163.4,62.4,163.5C62.4,163.5,62.4,163.5,62.4,163.5z"/>
			</g>
			<g>
				<path class="st12" d="M75.5,162.6l0,1.7c0,1-0.6,2-1.9,2.7c-2.6,1.5-6.8,1.5-9.4,0c-1.3-0.8-2-1.7-2-2.7l0-1.7c0,1,0.6,2,2,2.7
					c2.6,1.5,6.8,1.5,9.4,0C74.9,164.6,75.5,163.6,75.5,162.6z"/>
			</g>
			<g>
				<path class="st12" d="M75.5,164.3C75.5,164.3,75.5,164.3,75.5,164.3c0-0.6,0-1.2,0-1.7c0,0,0,0,0,0
					C75.5,163.1,75.5,163.8,75.5,164.3z"/>
			</g>
			<g>
				<path class="st12" d="M73.6,159.9c2.6,1.5,2.6,3.9,0,5.4c-2.6,1.5-6.8,1.5-9.4,0c-2.6-1.5-2.6-3.9,0-5.4
					C66.8,158.4,71,158.4,73.6,159.9z"/>
			</g>
			<path class="st13" d="M64.2,160.8c2.6-1.5,6.8-1.5,9.4,0c1.1,0.6,1.7,1.4,1.9,2.3c0.2-1.1-0.4-2.3-1.9-3.2
				c-2.6-1.5-6.8-1.5-9.4,0c-1.5,0.9-2.1,2-1.9,3.2C62.5,162.2,63.1,161.4,64.2,160.8z"/>
			<g>
				<path class="st13" d="M77.3,162.6l0,1.7c0,1.2-0.8,2.5-2.5,3.4c-3.3,1.9-8.6,1.9-11.9,0c-1.7-1-2.5-2.2-2.5-3.5l0-1.7
					c0,1.3,0.8,2.5,2.5,3.5c3.3,1.9,8.6,1.9,11.9,0C76.5,165.1,77.3,163.9,77.3,162.6z"/>
			</g>
			<g>
				<path class="st12" d="M74.8,159.1c3.3,1.9,3.3,5,0,6.9c-3.3,1.9-8.6,1.9-11.9,0c-3.3-1.9-3.3-5,0-6.9
					C66.2,157.2,71.5,157.2,74.8,159.1z M64.2,165.3c2.6,1.5,6.8,1.5,9.4,0c2.6-1.5,2.6-3.9,0-5.4c-2.6-1.5-6.8-1.5-9.4,0
					C61.6,161.4,61.6,163.8,64.2,165.3"/>
			</g>
		</g>
	</g>
	<g>
		<g class="st8">
			<g>
				<path class="st12" d="M64.8,159.4c-1,0.6-1.6,1.3-1.8,2c0-0.6,0-1.1,0-1.7c0.2-0.7,0.8-1.4,1.8-2c2.6-1.5,6.8-1.5,9.4,0
					c1.3,0.7,1.9,1.7,2,2.7c0,0.6,0,1.1,0,1.7c0-1-0.7-2-2-2.7C71.6,157.9,67.4,157.9,64.8,159.4z"/>
			</g>
			<g>
				<path class="st12" d="M63,161.4c-0.1,0.2-0.1,0.5-0.1,0.7l0-1.7c0-0.2,0-0.5,0.1-0.7c0,0.3,0,0.6,0,0.8c0,0.1,0,0.2,0,0.2
					c0,0.1,0,0.2,0,0.3C63,161.1,63,161.2,63,161.4C63,161.3,63,161.4,63,161.4z"/>
			</g>
			<g>
				<path class="st12" d="M76.2,160.4l0,1.7c0,1-0.6,2-1.9,2.7c-2.6,1.5-6.8,1.5-9.4,0c-1.3-0.8-2-1.7-2-2.7l0-1.7c0,1,0.6,2,2,2.7
					c2.6,1.5,6.8,1.5,9.4,0C75.5,162.4,76.2,161.4,76.2,160.4z"/>
			</g>
			<g>
				<path class="st12" d="M76.2,162.1C76.2,162.1,76.2,162.1,76.2,162.1c0-0.6,0-1.2,0-1.7c0,0,0,0,0,0
					C76.2,161,76.2,161.6,76.2,162.1z"/>
			</g>
			<g>
				<path class="st12" d="M74.2,157.7c2.6,1.5,2.6,3.9,0,5.4c-2.6,1.5-6.8,1.5-9.4,0c-2.6-1.5-2.6-3.9,0-5.4
					C67.4,156.2,71.6,156.2,74.2,157.7z"/>
			</g>
			<path class="st13" d="M64.8,158.7c2.6-1.5,6.8-1.5,9.4,0c1.1,0.6,1.7,1.4,1.9,2.3c0.2-1.1-0.4-2.3-1.9-3.2
				c-2.6-1.5-6.8-1.5-9.4,0c-1.5,0.9-2.1,2-1.9,3.2C63.1,160.1,63.8,159.3,64.8,158.7z"/>
			<g>
				<path class="st13" d="M78,160.4l0,1.7c0,1.2-0.8,2.5-2.5,3.4c-3.3,1.9-8.6,1.9-11.9,0c-1.7-1-2.5-2.2-2.5-3.5l0-1.7
					c0,1.3,0.8,2.5,2.5,3.5c3.3,1.9,8.6,1.9,11.9,0C77.2,162.9,78,161.7,78,160.4z"/>
			</g>
			<g>
				<path class="st12" d="M75.5,157c3.3,1.9,3.3,5,0,6.9c-3.3,1.9-8.6,1.9-11.9,0c-3.3-1.9-3.3-5,0-6.9
					C66.8,155.1,72.2,155.1,75.5,157z M64.9,163.1c2.6,1.5,6.8,1.5,9.4,0c2.6-1.5,2.6-3.9,0-5.4c-2.6-1.5-6.8-1.5-9.4,0
					C62.3,159.2,62.3,161.6,64.9,163.1"/>
			</g>
		</g>
	</g>
</g>
<g>
	<g>
		<g class="st8">
			<g>
				<path class="st15" d="M83.5,155.4c-0.7,0.4-1.2,1-1.4,1.5c0-0.4,0-0.9,0-1.3c0.2-0.6,0.6-1.1,1.4-1.5c2-1.1,5.2-1.1,7.2,0
					c1,0.6,1.5,1.3,1.5,2.1c0,0.4,0,0.9,0,1.3c0-0.8-0.5-1.5-1.5-2.1C88.7,154.2,85.5,154.2,83.5,155.4z"/>
			</g>
			<g>
				<path class="st15" d="M82.1,156.9c-0.1,0.2-0.1,0.4-0.1,0.5l0-1.3c0-0.2,0-0.4,0.1-0.5c0,0.2,0,0.4,0,0.7c0,0.1,0,0.1,0,0.2
					c0,0.1,0,0.2,0,0.2C82.1,156.7,82.1,156.8,82.1,156.9C82.1,156.8,82.2,156.9,82.1,156.9z"/>
			</g>
			<g>
				<path class="st15" d="M92.2,156.1l0,1.3c0,0.7-0.5,1.5-1.5,2.1c-2,1.1-5.2,1.1-7.2,0c-1-0.6-1.5-1.3-1.5-2.1l0-1.3
					c0,0.8,0.5,1.5,1.5,2.1c2,1.1,5.2,1.1,7.2,0C91.7,157.6,92.2,156.9,92.2,156.1z"/>
			</g>
			<g>
				<path class="st15" d="M92.2,157.4C92.2,157.4,92.2,157.4,92.2,157.4c0-0.4,0-0.9,0-1.3c0,0,0,0,0,0
					C92.2,156.5,92.2,157.1,92.2,157.4z"/>
			</g>
			<g>
				<path class="st15" d="M90.7,154.1c2,1.1,2,3,0,4.2c-2,1.1-5.2,1.1-7.2,0c-2-1.1-2-3,0-4.2C85.5,152.9,88.7,152.9,90.7,154.1z"/>
			</g>
			<path class="st16" d="M83.5,154.8c2-1.1,5.2-1.1,7.2,0c0.8,0.5,1.3,1.1,1.5,1.7c0.2-0.9-0.3-1.8-1.5-2.5c-2-1.1-5.2-1.1-7.2,0
				c-1.1,0.7-1.6,1.6-1.4,2.4C82.2,155.9,82.7,155.3,83.5,154.8z"/>
			<g>
				<path class="st16" d="M93.6,156.2l0,1.3c0,1-0.6,1.9-1.9,2.6c-2.5,1.5-6.6,1.5-9.1,0c-1.3-0.7-1.9-1.7-1.9-2.7l0-1.3
					c0,1,0.6,1.9,1.9,2.7c2.5,1.5,6.6,1.5,9.1,0C93,158.1,93.6,157.1,93.6,156.2z"/>
			</g>
			<g>
				<path class="st15" d="M91.7,153.5c2.5,1.5,2.5,3.8,0,5.3c-2.5,1.5-6.6,1.5-9.1,0c-2.5-1.5-2.5-3.8,0-5.3
					C85.1,152,89.2,152,91.7,153.5z M83.6,158.2c2,1.1,5.2,1.1,7.2,0c2-1.1,2-3,0-4.2c-2-1.1-5.2-1.1-7.2,0
					C81.6,155.2,81.6,157.1,83.6,158.2"/>
			</g>
		</g>
	</g>
	<g>
		<g class="st8">
			<g>
				<path class="st15" d="M83.5,153.9c-0.7,0.4-1.2,1-1.4,1.5c0-0.4,0-0.9,0-1.3c0.2-0.6,0.6-1.1,1.4-1.5c2-1.1,5.2-1.1,7.2,0
					c1,0.6,1.5,1.3,1.5,2.1c0,0.4,0,0.9,0,1.3c0-0.8-0.5-1.5-1.5-2.1C88.7,152.7,85.5,152.7,83.5,153.9z"/>
			</g>
			<g>
				<path class="st15" d="M82.1,155.4c-0.1,0.2-0.1,0.4-0.1,0.5l0-1.3c0-0.2,0-0.4,0.1-0.5c0,0.2,0,0.4,0,0.7c0,0.1,0,0.1,0,0.2
					c0,0.1,0,0.2,0,0.2C82.1,155.2,82.1,155.3,82.1,155.4C82.1,155.3,82.1,155.4,82.1,155.4z"/>
			</g>
			<g>
				<path class="st15" d="M92.2,154.7l0,1.3c0,0.7-0.5,1.5-1.5,2.1c-2,1.1-5.2,1.1-7.2,0c-1-0.6-1.5-1.3-1.5-2.1l0-1.3
					c0,0.8,0.5,1.5,1.5,2.1c2,1.1,5.2,1.1,7.2,0C91.7,156.1,92.2,155.4,92.2,154.7z"/>
			</g>
			<g>
				<path class="st15" d="M92.2,156C92.2,155.9,92.2,155.9,92.2,156c0-0.4,0-0.9,0-1.3c0,0,0,0,0,0C92.2,155,92.2,155.6,92.2,156z"
					/>
			</g>
			<g>
				<path class="st15" d="M90.7,152.6c2,1.1,2,3,0,4.2c-2,1.1-5.2,1.1-7.2,0c-2-1.1-2-3,0-4.2C85.5,151.4,88.7,151.4,90.7,152.6z"/>
			</g>
			<path class="st16" d="M83.5,153.3c2-1.1,5.2-1.1,7.2,0c0.8,0.5,1.3,1.1,1.5,1.7c0.2-0.9-0.3-1.8-1.5-2.5c-2-1.1-5.2-1.1-7.2,0
				c-1.1,0.7-1.6,1.6-1.4,2.4C82.2,154.4,82.7,153.8,83.5,153.3z"/>
			<g>
				<path class="st16" d="M93.6,154.7l0,1.3c0,1-0.6,1.9-1.9,2.6c-2.5,1.5-6.6,1.5-9.1,0c-1.3-0.7-1.9-1.7-1.9-2.7l0-1.3
					c0,1,0.6,1.9,1.9,2.7c2.5,1.5,6.6,1.5,9.1,0C93,156.6,93.6,155.6,93.6,154.7z"/>
			</g>
			<g>
				<path class="st15" d="M91.7,152c2.5,1.5,2.5,3.8,0,5.3c-2.5,1.5-6.6,1.5-9.1,0c-2.5-1.5-2.5-3.8,0-5.3
					C85.1,150.5,89.2,150.5,91.7,152z M83.6,156.7c2,1.1,5.2,1.1,7.2,0c2-1.1,2-3,0-4.2c-2-1.1-5.2-1.1-7.2,0
					C81.6,153.7,81.6,155.6,83.6,156.7"/>
			</g>
		</g>
	</g>
	<g>
		<g class="st8">
			<g>
				<path class="st15" d="M83.6,151.8c-0.7,0.4-1.2,1-1.4,1.5c0-0.4,0-0.9,0-1.3c0.2-0.6,0.6-1.1,1.4-1.5c2-1.1,5.2-1.1,7.2,0
					c1,0.6,1.5,1.3,1.5,2.1c0,0.4,0,0.9,0,1.3c0-0.8-0.5-1.5-1.5-2.1C88.8,150.6,85.6,150.6,83.6,151.8z"/>
			</g>
			<g>
				<path class="st15" d="M82.2,153.3c-0.1,0.2-0.1,0.4-0.1,0.5l0-1.3c0-0.2,0-0.4,0.1-0.5c0,0.2,0,0.4,0,0.7c0,0.1,0,0.1,0,0.2
					c0,0.1,0,0.2,0,0.2C82.2,153.1,82.2,153.2,82.2,153.3C82.2,153.2,82.2,153.3,82.2,153.3z"/>
			</g>
			<g>
				<path class="st15" d="M92.3,152.6l0,1.3c0,0.7-0.5,1.5-1.5,2.1c-2,1.1-5.2,1.1-7.2,0c-1-0.6-1.5-1.3-1.5-2.1l0-1.3
					c0,0.8,0.5,1.5,1.5,2.1c2,1.1,5.2,1.1,7.2,0C91.8,154,92.3,153.3,92.3,152.6z"/>
			</g>
			<g>
				<path class="st15" d="M92.3,153.9C92.3,153.9,92.3,153.8,92.3,153.9c0-0.4,0-0.9,0-1.3c0,0,0,0,0,0
					C92.3,152.9,92.3,153.5,92.3,153.9z"/>
			</g>
			<g>
				<path class="st15" d="M90.8,150.5c2,1.1,2,3,0,4.2c-2,1.1-5.2,1.1-7.2,0c-2-1.1-2-3,0-4.2C85.6,149.3,88.8,149.3,90.8,150.5z"/>
			</g>
			<path class="st16" d="M83.6,151.2c2-1.1,5.2-1.1,7.2,0c0.8,0.5,1.3,1.1,1.5,1.7c0.2-0.9-0.3-1.8-1.5-2.5c-2-1.1-5.2-1.1-7.2,0
				c-1.1,0.7-1.6,1.6-1.4,2.4C82.3,152.3,82.8,151.7,83.6,151.2z"/>
			<g>
				<path class="st16" d="M93.7,152.6l0,1.3c0,1-0.6,1.9-1.9,2.6c-2.5,1.5-6.6,1.5-9.1,0c-1.3-0.7-1.9-1.7-1.9-2.7l0-1.3
					c0,1,0.6,1.9,1.9,2.7c2.5,1.5,6.6,1.5,9.1,0C93,154.5,93.6,153.5,93.7,152.6z"/>
			</g>
			<g>
				<path class="st15" d="M91.7,149.9c2.5,1.5,2.5,3.8,0,5.3c-2.5,1.5-6.6,1.5-9.1,0c-2.5-1.5-2.5-3.8,0-5.3
					C85.1,148.4,89.2,148.4,91.7,149.9z M83.6,154.6c2,1.1,5.2,1.1,7.2,0c2-1.1,2-3,0-4.2c-2-1.1-5.2-1.1-7.2,0
					C81.6,151.6,81.6,153.5,83.6,154.6"/>
			</g>
		</g>
	</g>
	<g>
		<g class="st8">
			<g>
				<path class="st15" d="M84.2,150.4c-0.7,0.4-1.2,1-1.4,1.5c0-0.4,0-0.9,0-1.3c0.2-0.6,0.6-1.1,1.4-1.5c2-1.1,5.2-1.1,7.2,0
					c1,0.6,1.5,1.3,1.5,2.1c0,0.4,0,0.9,0,1.3c0-0.8-0.5-1.5-1.5-2.1C89.4,149.2,86.2,149.2,84.2,150.4z"/>
			</g>
			<g>
				<path class="st15" d="M82.8,151.9c-0.1,0.2-0.1,0.4-0.1,0.5l0-1.3c0-0.2,0-0.4,0.1-0.5c0,0.2,0,0.4,0,0.7c0,0.1,0,0.1,0,0.2
					c0,0.1,0,0.2,0,0.2C82.8,151.7,82.8,151.8,82.8,151.9C82.8,151.8,82.8,151.9,82.8,151.9z"/>
			</g>
			<g>
				<path class="st15" d="M92.9,151.2l0,1.3c0,0.7-0.5,1.5-1.5,2.1c-2,1.1-5.2,1.1-7.2,0c-1-0.6-1.5-1.3-1.5-2.1l0-1.3
					c0,0.8,0.5,1.5,1.5,2.1c2,1.1,5.2,1.1,7.2,0C92.4,152.7,92.9,151.9,92.9,151.2z"/>
			</g>
			<g>
				<path class="st15" d="M92.9,152.5C92.9,152.5,92.9,152.5,92.9,152.5c0-0.4,0-0.9,0-1.3c0,0,0,0,0,0
					C92.9,151.6,92.9,152.1,92.9,152.5z"/>
			</g>
			<g>
				<path class="st15" d="M91.4,149.1c2,1.1,2,3,0,4.2c-2,1.1-5.2,1.1-7.2,0c-2-1.1-2-3,0-4.2C86.2,147.9,89.4,147.9,91.4,149.1z"/>
			</g>
			<path class="st16" d="M84.2,149.8c2-1.1,5.2-1.1,7.2,0c0.8,0.5,1.3,1.1,1.5,1.7c0.2-0.9-0.3-1.8-1.5-2.5c-2-1.1-5.2-1.1-7.2,0
				c-1.1,0.7-1.6,1.6-1.4,2.4C82.9,150.9,83.4,150.3,84.2,149.8z"/>
			<g>
				<path class="st16" d="M94.3,151.2l0,1.3c0,1-0.6,1.9-1.9,2.6c-2.5,1.5-6.6,1.5-9.1,0c-1.3-0.7-1.9-1.7-1.9-2.7l0-1.3
					c0,1,0.6,1.9,1.9,2.7c2.5,1.5,6.6,1.5,9.1,0C93.7,153.1,94.3,152.1,94.3,151.2z"/>
			</g>
			<g>
				<path class="st15" d="M92.4,148.5c2.5,1.5,2.5,3.8,0,5.3c-2.5,1.5-6.6,1.5-9.1,0c-2.5-1.5-2.5-3.8,0-5.3
					C85.8,147,89.8,147,92.4,148.5z M84.2,153.2c2,1.1,5.2,1.1,7.2,0c2-1.1,2-3,0-4.2c-2-1.1-5.2-1.1-7.2,0
					C82.2,150.2,82.3,152.1,84.2,153.2"/>
			</g>
		</g>
	</g>
</g>
</svg>
